<svg width="712" height="874" viewBox="0 0 712 874" fill="none" xmlns="http://www.w3.org/2000/svg">
<g filter="url(#filter0_d_1_161)">
<rect x="75" y="46" width="552" height="714" rx="28" fill="#FCFCFC" shape-rendering="crispEdges"/>
<rect x="255.5" y="334.5" width="55" height="55" rx="13.5" stroke="#657FF5" stroke-width="3"/>
<path d="M272.459 280.557H274.428C275.193 280.557 275.827 280.424 276.328 280.16C276.839 279.896 277.217 279.531 277.463 279.066C277.709 278.602 277.832 278.068 277.832 277.467C277.832 276.838 277.718 276.3 277.49 275.854C277.271 275.398 276.934 275.047 276.479 274.801C276.032 274.555 275.462 274.432 274.77 274.432C274.186 274.432 273.658 274.55 273.184 274.787C272.719 275.015 272.35 275.343 272.076 275.771C271.803 276.191 271.666 276.692 271.666 277.275H268.357C268.357 276.218 268.635 275.279 269.191 274.459C269.747 273.639 270.504 272.996 271.461 272.531C272.427 272.057 273.512 271.82 274.715 271.82C276 271.82 277.121 272.035 278.078 272.463C279.044 272.882 279.796 273.511 280.334 274.35C280.872 275.188 281.141 276.227 281.141 277.467C281.141 278.032 281.008 278.606 280.744 279.189C280.48 279.773 280.088 280.306 279.568 280.789C279.049 281.263 278.402 281.65 277.627 281.951C276.852 282.243 275.954 282.389 274.934 282.389H272.459V280.557ZM272.459 283.127V281.322H274.934C276.1 281.322 277.094 281.459 277.914 281.732C278.743 282.006 279.418 282.384 279.938 282.867C280.457 283.341 280.835 283.883 281.072 284.494C281.318 285.105 281.441 285.752 281.441 286.436C281.441 287.365 281.273 288.195 280.936 288.924C280.607 289.644 280.138 290.255 279.527 290.756C278.917 291.257 278.201 291.635 277.381 291.891C276.57 292.146 275.686 292.273 274.729 292.273C273.872 292.273 273.051 292.155 272.268 291.918C271.484 291.681 270.782 291.33 270.162 290.865C269.542 290.391 269.05 289.803 268.686 289.102C268.33 288.391 268.152 287.57 268.152 286.641H271.447C271.447 287.233 271.584 287.757 271.857 288.213C272.14 288.66 272.532 289.01 273.033 289.266C273.544 289.521 274.127 289.648 274.783 289.648C275.476 289.648 276.073 289.525 276.574 289.279C277.076 289.033 277.458 288.669 277.723 288.186C277.996 287.702 278.133 287.119 278.133 286.436C278.133 285.661 277.982 285.032 277.682 284.549C277.381 284.066 276.952 283.71 276.396 283.482C275.84 283.245 275.184 283.127 274.428 283.127H272.459ZM293.5 272.025V292H290.205V275.936L285.324 277.59V274.869L293.104 272.025H293.5Z" fill="#B3B3B3"/>
<path d="M204.459 280.557H206.428C207.193 280.557 207.827 280.424 208.328 280.16C208.839 279.896 209.217 279.531 209.463 279.066C209.709 278.602 209.832 278.068 209.832 277.467C209.832 276.838 209.718 276.3 209.49 275.854C209.271 275.398 208.934 275.047 208.479 274.801C208.032 274.555 207.462 274.432 206.77 274.432C206.186 274.432 205.658 274.55 205.184 274.787C204.719 275.015 204.35 275.343 204.076 275.771C203.803 276.191 203.666 276.692 203.666 277.275H200.357C200.357 276.218 200.635 275.279 201.191 274.459C201.747 273.639 202.504 272.996 203.461 272.531C204.427 272.057 205.512 271.82 206.715 271.82C208 271.82 209.121 272.035 210.078 272.463C211.044 272.882 211.796 273.511 212.334 274.35C212.872 275.188 213.141 276.227 213.141 277.467C213.141 278.032 213.008 278.606 212.744 279.189C212.48 279.773 212.088 280.306 211.568 280.789C211.049 281.263 210.402 281.65 209.627 281.951C208.852 282.243 207.954 282.389 206.934 282.389H204.459V280.557ZM204.459 283.127V281.322H206.934C208.1 281.322 209.094 281.459 209.914 281.732C210.743 282.006 211.418 282.384 211.938 282.867C212.457 283.341 212.835 283.883 213.072 284.494C213.318 285.105 213.441 285.752 213.441 286.436C213.441 287.365 213.273 288.195 212.936 288.924C212.607 289.644 212.138 290.255 211.527 290.756C210.917 291.257 210.201 291.635 209.381 291.891C208.57 292.146 207.686 292.273 206.729 292.273C205.872 292.273 205.051 292.155 204.268 291.918C203.484 291.681 202.782 291.33 202.162 290.865C201.542 290.391 201.05 289.803 200.686 289.102C200.33 288.391 200.152 287.57 200.152 286.641H203.447C203.447 287.233 203.584 287.757 203.857 288.213C204.14 288.66 204.532 289.01 205.033 289.266C205.544 289.521 206.127 289.648 206.783 289.648C207.476 289.648 208.073 289.525 208.574 289.279C209.076 289.033 209.458 288.669 209.723 288.186C209.996 287.702 210.133 287.119 210.133 286.436C210.133 285.661 209.982 285.032 209.682 284.549C209.381 284.066 208.952 283.71 208.396 283.482C207.84 283.245 207.184 283.127 206.428 283.127H204.459ZM229.479 280.379V283.633C229.479 285.191 229.324 286.522 229.014 287.625C228.713 288.719 228.275 289.607 227.701 290.291C227.127 290.975 226.439 291.476 225.637 291.795C224.844 292.114 223.955 292.273 222.971 292.273C222.187 292.273 221.458 292.173 220.783 291.973C220.118 291.772 219.516 291.458 218.979 291.029C218.441 290.601 217.98 290.049 217.598 289.375C217.224 288.691 216.932 287.876 216.723 286.928C216.522 285.98 216.422 284.882 216.422 283.633V280.379C216.422 278.811 216.577 277.49 216.887 276.414C217.197 275.329 217.639 274.45 218.213 273.775C218.787 273.092 219.471 272.595 220.264 272.285C221.066 271.975 221.959 271.82 222.943 271.82C223.736 271.82 224.465 271.921 225.131 272.121C225.805 272.312 226.407 272.618 226.936 273.037C227.473 273.456 227.929 274.003 228.303 274.678C228.686 275.343 228.977 276.15 229.178 277.098C229.378 278.036 229.479 279.13 229.479 280.379ZM226.184 284.098V279.887C226.184 279.094 226.138 278.396 226.047 277.795C225.956 277.184 225.819 276.669 225.637 276.25C225.464 275.822 225.245 275.475 224.98 275.211C224.716 274.938 224.415 274.742 224.078 274.623C223.741 274.495 223.363 274.432 222.943 274.432C222.433 274.432 221.977 274.532 221.576 274.732C221.175 274.924 220.838 275.234 220.564 275.662C220.291 276.09 220.081 276.656 219.936 277.357C219.799 278.05 219.73 278.893 219.73 279.887V284.098C219.73 284.9 219.776 285.606 219.867 286.217C219.958 286.827 220.095 287.352 220.277 287.789C220.46 288.217 220.678 288.573 220.934 288.855C221.198 289.129 221.499 289.329 221.836 289.457C222.182 289.585 222.561 289.648 222.971 289.648C223.49 289.648 223.951 289.548 224.352 289.348C224.753 289.147 225.09 288.828 225.363 288.391C225.637 287.944 225.842 287.365 225.979 286.654C226.115 285.943 226.184 285.091 226.184 284.098Z" fill="#B3B3B3"/>
<path d="M145.934 289.375V292H132.59V289.744L139.07 282.676C139.781 281.874 140.342 281.181 140.752 280.598C141.162 280.014 141.449 279.49 141.613 279.025C141.786 278.551 141.873 278.091 141.873 277.645C141.873 277.016 141.755 276.464 141.518 275.99C141.29 275.507 140.952 275.129 140.506 274.855C140.059 274.573 139.517 274.432 138.879 274.432C138.141 274.432 137.521 274.591 137.02 274.91C136.518 275.229 136.14 275.671 135.885 276.236C135.63 276.792 135.502 277.43 135.502 278.15H132.207C132.207 276.993 132.471 275.936 133 274.979C133.529 274.012 134.294 273.247 135.297 272.682C136.299 272.107 137.507 271.82 138.92 271.82C140.251 271.82 141.381 272.044 142.311 272.49C143.24 272.937 143.947 273.57 144.43 274.391C144.922 275.211 145.168 276.182 145.168 277.303C145.168 277.923 145.068 278.538 144.867 279.148C144.667 279.759 144.38 280.37 144.006 280.98C143.641 281.582 143.208 282.188 142.707 282.799C142.206 283.4 141.654 284.011 141.053 284.631L136.746 289.375H145.934ZM151.156 289.402H151.43C152.688 289.402 153.736 289.238 154.574 288.91C155.422 288.573 156.096 288.108 156.598 287.516C157.099 286.923 157.459 286.226 157.678 285.424C157.896 284.622 158.006 283.751 158.006 282.812V279.381C158.006 278.57 157.919 277.859 157.746 277.248C157.582 276.628 157.345 276.113 157.035 275.703C156.734 275.284 156.383 274.969 155.982 274.76C155.59 274.55 155.167 274.445 154.711 274.445C154.21 274.445 153.758 274.559 153.357 274.787C152.965 275.006 152.633 275.311 152.359 275.703C152.095 276.086 151.89 276.537 151.744 277.057C151.607 277.567 151.539 278.114 151.539 278.697C151.539 279.244 151.603 279.773 151.73 280.283C151.867 280.785 152.068 281.231 152.332 281.623C152.596 282.015 152.929 282.325 153.33 282.553C153.731 282.781 154.201 282.895 154.738 282.895C155.249 282.895 155.718 282.799 156.146 282.607C156.575 282.407 156.949 282.138 157.268 281.801C157.587 281.464 157.837 281.085 158.02 280.666C158.202 280.247 158.302 279.818 158.32 279.381L159.578 279.764C159.578 280.456 159.432 281.14 159.141 281.814C158.858 282.48 158.462 283.09 157.951 283.646C157.45 284.193 156.862 284.631 156.188 284.959C155.522 285.287 154.798 285.451 154.014 285.451C153.066 285.451 152.227 285.273 151.498 284.918C150.778 284.553 150.176 284.061 149.693 283.441C149.219 282.822 148.864 282.111 148.627 281.309C148.39 280.507 148.271 279.663 148.271 278.779C148.271 277.822 148.417 276.924 148.709 276.086C149.001 275.247 149.424 274.509 149.98 273.871C150.536 273.224 151.211 272.723 152.004 272.367C152.806 272.003 153.713 271.82 154.725 271.82C155.8 271.82 156.743 272.03 157.555 272.449C158.366 272.868 159.049 273.447 159.605 274.186C160.161 274.924 160.581 275.781 160.863 276.756C161.146 277.731 161.287 278.779 161.287 279.9V281.062C161.287 282.238 161.182 283.373 160.973 284.467C160.763 285.551 160.421 286.559 159.947 287.488C159.482 288.409 158.867 289.22 158.102 289.922C157.345 290.615 156.415 291.157 155.312 291.549C154.219 291.932 152.934 292.123 151.457 292.123H151.156V289.402Z" fill="#B3B3B3"/>
<path d="M561.891 609.375V612H548.547V609.744L555.027 602.676C555.738 601.874 556.299 601.181 556.709 600.598C557.119 600.014 557.406 599.49 557.57 599.025C557.743 598.551 557.83 598.091 557.83 597.645C557.83 597.016 557.712 596.464 557.475 595.99C557.247 595.507 556.91 595.129 556.463 594.855C556.016 594.573 555.474 594.432 554.836 594.432C554.098 594.432 553.478 594.591 552.977 594.91C552.475 595.229 552.097 595.671 551.842 596.236C551.587 596.792 551.459 597.43 551.459 598.15H548.164C548.164 596.993 548.428 595.936 548.957 594.979C549.486 594.012 550.251 593.247 551.254 592.682C552.257 592.107 553.464 591.82 554.877 591.82C556.208 591.82 557.338 592.044 558.268 592.49C559.197 592.937 559.904 593.57 560.387 594.391C560.879 595.211 561.125 596.182 561.125 597.303C561.125 597.923 561.025 598.538 560.824 599.148C560.624 599.759 560.337 600.37 559.963 600.98C559.598 601.582 559.165 602.188 558.664 602.799C558.163 603.4 557.611 604.011 557.01 604.631L552.703 609.375H561.891Z" fill="#B3B3B3"/>
<path d="M489.543 592.025V612H486.248V595.936L481.367 597.59V594.869L489.146 592.025H489.543Z" fill="#B3B3B3"/>
<path d="M289.768 352.094V353.898L281.811 372H278.338L286.281 354.719H275.973V352.094H289.768Z" fill="#657FF5"/>
<g filter="url(#filter1_d_1_161)">
<rect x="453" y="664" width="125" height="56" rx="15" fill="#4D6BF1"/>
<path d="M494.93 700H491.285L491.309 697.668H494.93C495.984 697.668 496.867 697.438 497.578 696.977C498.297 696.516 498.836 695.855 499.195 694.996C499.562 694.137 499.746 693.113 499.746 691.926V691C499.746 690.078 499.641 689.262 499.43 688.551C499.227 687.84 498.922 687.242 498.516 686.758C498.117 686.273 497.625 685.906 497.039 685.656C496.461 685.406 495.793 685.281 495.035 685.281H491.215V682.938H495.035C496.168 682.938 497.203 683.129 498.141 683.512C499.078 683.887 499.887 684.43 500.566 685.141C501.254 685.852 501.781 686.703 502.148 687.695C502.516 688.688 502.699 689.797 502.699 691.023V691.926C502.699 693.152 502.516 694.262 502.148 695.254C501.781 696.246 501.254 697.098 500.566 697.809C499.879 698.512 499.059 699.055 498.105 699.438C497.16 699.812 496.102 700 494.93 700ZM492.914 682.938V700H489.973V682.938H492.914ZM504.832 693.801V693.531C504.832 692.617 504.965 691.77 505.23 690.988C505.496 690.199 505.879 689.516 506.379 688.938C506.887 688.352 507.504 687.898 508.23 687.578C508.965 687.25 509.793 687.086 510.715 687.086C511.645 687.086 512.473 687.25 513.199 687.578C513.934 687.898 514.555 688.352 515.062 688.938C515.57 689.516 515.957 690.199 516.223 690.988C516.488 691.77 516.621 692.617 516.621 693.531V693.801C516.621 694.715 516.488 695.562 516.223 696.344C515.957 697.125 515.57 697.809 515.062 698.395C514.555 698.973 513.938 699.426 513.211 699.754C512.484 700.074 511.66 700.234 510.738 700.234C509.809 700.234 508.977 700.074 508.242 699.754C507.516 699.426 506.898 698.973 506.391 698.395C505.883 697.809 505.496 697.125 505.23 696.344C504.965 695.562 504.832 694.715 504.832 693.801ZM507.656 693.531V693.801C507.656 694.371 507.715 694.91 507.832 695.418C507.949 695.926 508.133 696.371 508.383 696.754C508.633 697.137 508.953 697.438 509.344 697.656C509.734 697.875 510.199 697.984 510.738 697.984C511.262 697.984 511.715 697.875 512.098 697.656C512.488 697.438 512.809 697.137 513.059 696.754C513.309 696.371 513.492 695.926 513.609 695.418C513.734 694.91 513.797 694.371 513.797 693.801V693.531C513.797 692.969 513.734 692.438 513.609 691.938C513.492 691.43 513.305 690.98 513.047 690.59C512.797 690.199 512.477 689.895 512.086 689.676C511.703 689.449 511.246 689.336 510.715 689.336C510.184 689.336 509.723 689.449 509.332 689.676C508.949 689.895 508.633 690.199 508.383 690.59C508.133 690.98 507.949 691.43 507.832 691.938C507.715 692.438 507.656 692.969 507.656 693.531ZM521.789 690.027V700H518.965V687.32H521.625L521.789 690.027ZM521.285 693.191L520.371 693.18C520.379 692.281 520.504 691.457 520.746 690.707C520.996 689.957 521.34 689.312 521.777 688.773C522.223 688.234 522.754 687.82 523.371 687.531C523.988 687.234 524.676 687.086 525.434 687.086C526.043 687.086 526.594 687.172 527.086 687.344C527.586 687.508 528.012 687.777 528.363 688.152C528.723 688.527 528.996 689.016 529.184 689.617C529.371 690.211 529.465 690.941 529.465 691.809V700H526.629V691.797C526.629 691.188 526.539 690.707 526.359 690.355C526.188 689.996 525.934 689.742 525.598 689.594C525.27 689.438 524.859 689.359 524.367 689.359C523.883 689.359 523.449 689.461 523.066 689.664C522.684 689.867 522.359 690.145 522.094 690.496C521.836 690.848 521.637 691.254 521.496 691.715C521.355 692.176 521.285 692.668 521.285 693.191ZM537.938 700.234C537 700.234 536.152 700.082 535.395 699.777C534.645 699.465 534.004 699.031 533.473 698.477C532.949 697.922 532.547 697.27 532.266 696.52C531.984 695.77 531.844 694.961 531.844 694.094V693.625C531.844 692.633 531.988 691.734 532.277 690.93C532.566 690.125 532.969 689.438 533.484 688.867C534 688.289 534.609 687.848 535.312 687.543C536.016 687.238 536.777 687.086 537.598 687.086C538.504 687.086 539.297 687.238 539.977 687.543C540.656 687.848 541.219 688.277 541.664 688.832C542.117 689.379 542.453 690.031 542.672 690.789C542.898 691.547 543.012 692.383 543.012 693.297V694.504H533.215V692.477H540.223V692.254C540.207 691.746 540.105 691.27 539.918 690.824C539.738 690.379 539.461 690.02 539.086 689.746C538.711 689.473 538.211 689.336 537.586 689.336C537.117 689.336 536.699 689.438 536.332 689.641C535.973 689.836 535.672 690.121 535.43 690.496C535.188 690.871 535 691.324 534.867 691.855C534.742 692.379 534.68 692.969 534.68 693.625V694.094C534.68 694.648 534.754 695.164 534.902 695.641C535.059 696.109 535.285 696.52 535.582 696.871C535.879 697.223 536.238 697.5 536.66 697.703C537.082 697.898 537.562 697.996 538.102 697.996C538.781 697.996 539.387 697.859 539.918 697.586C540.449 697.312 540.91 696.926 541.301 696.426L542.789 697.867C542.516 698.266 542.16 698.648 541.723 699.016C541.285 699.375 540.75 699.668 540.117 699.895C539.492 700.121 538.766 700.234 537.938 700.234Z" fill="white"/>
</g>
<path d="M130.077 199.091H133.54L139.56 213.79H139.781L145.801 199.091H149.263V218H146.549V204.317H146.374L140.797 217.972H138.544L132.967 204.308H132.792V218H130.077V199.091ZM159.164 218.286C157.834 218.286 156.674 217.982 155.683 217.372C154.692 216.763 153.922 215.91 153.374 214.815C152.827 213.719 152.553 212.439 152.553 210.974C152.553 209.503 152.827 208.216 153.374 207.114C153.922 206.013 154.692 205.157 155.683 204.548C156.674 203.938 157.834 203.634 159.164 203.634C160.493 203.634 161.653 203.938 162.644 204.548C163.635 205.157 164.405 206.013 164.953 207.114C165.5 208.216 165.774 209.503 165.774 210.974C165.774 212.439 165.5 213.719 164.953 214.815C164.405 215.91 163.635 216.763 162.644 217.372C161.653 217.982 160.493 218.286 159.164 218.286ZM159.173 215.969C160.035 215.969 160.749 215.741 161.315 215.286C161.881 214.83 162.3 214.224 162.57 213.467C162.847 212.71 162.986 211.875 162.986 210.964C162.986 210.06 162.847 209.229 162.57 208.472C162.3 207.708 161.881 207.096 161.315 206.634C160.749 206.173 160.035 205.942 159.173 205.942C158.305 205.942 157.585 206.173 157.012 206.634C156.446 207.096 156.024 207.708 155.747 208.472C155.477 209.229 155.341 210.06 155.341 210.964C155.341 211.875 155.477 212.71 155.747 213.467C156.024 214.224 156.446 214.83 157.012 215.286C157.585 215.741 158.305 215.969 159.173 215.969Z" fill="#B3B3B3"/>
<path d="M201.411 201.547V199.091H216.045V201.547H210.145V218H207.301V201.547H201.411ZM226.111 212.119V203.818H228.881V218H226.166V215.544H226.019C225.692 216.301 225.169 216.932 224.449 217.437C223.735 217.935 222.846 218.185 221.781 218.185C220.87 218.185 220.063 217.985 219.362 217.585C218.666 217.178 218.118 216.578 217.718 215.784C217.324 214.99 217.127 214.008 217.127 212.839V203.818H219.888V212.506C219.888 213.473 220.156 214.242 220.691 214.815C221.227 215.387 221.922 215.673 222.778 215.673C223.295 215.673 223.809 215.544 224.32 215.286C224.837 215.027 225.265 214.636 225.603 214.113C225.948 213.59 226.117 212.925 226.111 212.119Z" fill="#B3B3B3"/>
<path d="M269.411 201.547V199.091H284.045V201.547H278.145V218H275.301V201.547H269.411ZM294.111 212.119V203.818H296.881V218H294.166V215.544H294.019C293.692 216.301 293.169 216.932 292.449 217.437C291.735 217.935 290.846 218.185 289.781 218.185C288.87 218.185 288.063 217.985 287.362 217.585C286.666 217.178 286.118 216.578 285.718 215.784C285.324 214.99 285.127 214.008 285.127 212.839V203.818H287.888V212.506C287.888 213.473 288.156 214.242 288.691 214.815C289.227 215.387 289.922 215.673 290.778 215.673C291.295 215.673 291.809 215.544 292.32 215.286C292.837 215.027 293.265 214.636 293.603 214.113C293.948 213.59 294.117 212.925 294.111 212.119Z" fill="#B3B3B3"/>
<path d="M336.357 201.547V199.091H350.991V201.547H345.091V218H342.247V201.547H336.357ZM356.764 209.58V218H354.003V199.091H356.727V206.126H356.902C357.235 205.363 357.743 204.757 358.426 204.308C359.109 203.858 360.002 203.634 361.103 203.634C362.076 203.634 362.925 203.834 363.652 204.234C364.384 204.634 364.95 205.231 365.351 206.025C365.757 206.813 365.96 207.798 365.96 208.979V218H363.199V209.312C363.199 208.272 362.932 207.465 362.396 206.893C361.861 206.314 361.116 206.025 360.162 206.025C359.509 206.025 358.924 206.163 358.407 206.44C357.897 206.717 357.493 207.124 357.198 207.659C356.909 208.188 356.764 208.829 356.764 209.58Z" fill="#B3B3B3"/>
<path d="M408.56 218V199.091H420.286V201.547H411.413V207.308H419.445V209.755H411.413V218H408.56ZM423.395 218V203.818H426.063V206.071H426.211C426.469 205.308 426.925 204.708 427.577 204.271C428.236 203.827 428.981 203.606 429.812 203.606C429.984 203.606 430.187 203.612 430.421 203.624C430.661 203.637 430.849 203.652 430.984 203.67V206.311C430.874 206.28 430.677 206.246 430.393 206.21C430.11 206.166 429.827 206.145 429.544 206.145C428.892 206.145 428.31 206.283 427.799 206.56C427.294 206.831 426.894 207.21 426.599 207.696C426.303 208.176 426.156 208.724 426.156 209.339V218H423.395Z" fill="#B3B3B3"/>
<path d="M483.623 204.058C483.525 203.184 483.118 202.507 482.404 202.027C481.69 201.541 480.792 201.298 479.708 201.298C478.933 201.298 478.262 201.421 477.695 201.667C477.129 201.907 476.689 202.239 476.375 202.664C476.067 203.083 475.914 203.56 475.914 204.095C475.914 204.545 476.018 204.932 476.227 205.259C476.443 205.585 476.723 205.859 477.068 206.08C477.419 206.296 477.794 206.477 478.194 206.625C478.594 206.767 478.979 206.884 479.348 206.976L481.195 207.456C481.798 207.604 482.417 207.804 483.051 208.056C483.685 208.308 484.272 208.641 484.814 209.053C485.356 209.466 485.793 209.977 486.125 210.586C486.464 211.195 486.633 211.925 486.633 212.774C486.633 213.845 486.356 214.796 485.802 215.627C485.254 216.458 484.457 217.114 483.411 217.594C482.37 218.074 481.112 218.314 479.634 218.314C478.219 218.314 476.994 218.089 475.96 217.64C474.926 217.191 474.116 216.554 473.531 215.729C472.947 214.898 472.624 213.913 472.562 212.774H475.424C475.48 213.457 475.701 214.027 476.089 214.482C476.483 214.932 476.985 215.267 477.594 215.489C478.209 215.704 478.883 215.812 479.616 215.812C480.422 215.812 481.139 215.686 481.767 215.433C482.401 215.175 482.9 214.818 483.263 214.362C483.626 213.901 483.808 213.362 483.808 212.746C483.808 212.186 483.648 211.728 483.328 211.371C483.014 211.014 482.586 210.718 482.044 210.484C481.509 210.25 480.902 210.044 480.225 209.866L477.991 209.256C476.477 208.844 475.276 208.238 474.39 207.438C473.51 206.637 473.07 205.579 473.07 204.261C473.07 203.172 473.365 202.221 473.956 201.408C474.547 200.596 475.347 199.965 476.357 199.516C477.366 199.06 478.505 198.832 479.773 198.832C481.053 198.832 482.183 199.057 483.161 199.506C484.146 199.956 484.922 200.574 485.488 201.362C486.054 202.144 486.35 203.043 486.374 204.058H483.623ZM493.948 218.314C493.049 218.314 492.237 218.148 491.51 217.815C490.784 217.477 490.208 216.987 489.784 216.347C489.365 215.707 489.156 214.922 489.156 213.993C489.156 213.193 489.31 212.534 489.618 212.017C489.925 211.5 490.341 211.091 490.864 210.789C491.387 210.487 491.972 210.26 492.618 210.106C493.265 209.952 493.923 209.835 494.594 209.755C495.444 209.656 496.133 209.576 496.662 209.515C497.192 209.447 497.576 209.339 497.816 209.192C498.056 209.044 498.176 208.804 498.176 208.472V208.407C498.176 207.601 497.949 206.976 497.493 206.533C497.044 206.089 496.373 205.868 495.48 205.868C494.551 205.868 493.819 206.074 493.283 206.487C492.754 206.893 492.387 207.345 492.184 207.844L489.59 207.253C489.898 206.391 490.347 205.696 490.938 205.166C491.535 204.631 492.221 204.243 492.997 204.003C493.772 203.757 494.588 203.634 495.444 203.634C496.01 203.634 496.61 203.701 497.244 203.837C497.884 203.966 498.481 204.206 499.035 204.557C499.595 204.908 500.054 205.409 500.411 206.062C500.768 206.708 500.946 207.548 500.946 208.582V218H498.25V216.061H498.14C497.961 216.418 497.693 216.769 497.336 217.114C496.979 217.458 496.521 217.745 495.961 217.972C495.4 218.2 494.73 218.314 493.948 218.314ZM494.548 216.098C495.311 216.098 495.964 215.947 496.505 215.646C497.053 215.344 497.469 214.95 497.752 214.464C498.041 213.971 498.186 213.445 498.186 212.885V211.057C498.087 211.155 497.896 211.248 497.613 211.334C497.336 211.414 497.019 211.485 496.662 211.546C496.305 211.602 495.958 211.654 495.619 211.703C495.28 211.746 494.997 211.783 494.77 211.814C494.234 211.882 493.745 211.996 493.301 212.156C492.864 212.316 492.514 212.546 492.249 212.848C491.99 213.143 491.861 213.537 491.861 214.03C491.861 214.713 492.114 215.23 492.618 215.581C493.123 215.926 493.766 216.098 494.548 216.098Z" fill="#B3B3B3"/>
<path d="M551.793 204.058C551.694 203.184 551.288 202.507 550.574 202.027C549.86 201.541 548.962 201.298 547.878 201.298C547.103 201.298 546.432 201.421 545.865 201.667C545.299 201.907 544.859 202.239 544.545 202.664C544.237 203.083 544.083 203.56 544.083 204.095C544.083 204.545 544.188 204.932 544.397 205.259C544.613 205.585 544.893 205.859 545.238 206.08C545.588 206.296 545.964 206.477 546.364 206.625C546.764 206.767 547.149 206.884 547.518 206.976L549.365 207.456C549.968 207.604 550.587 207.804 551.221 208.056C551.855 208.308 552.442 208.641 552.984 209.053C553.526 209.466 553.963 209.977 554.295 210.586C554.634 211.195 554.803 211.925 554.803 212.774C554.803 213.845 554.526 214.796 553.972 215.627C553.424 216.458 552.627 217.114 551.581 217.594C550.54 218.074 549.282 218.314 547.804 218.314C546.389 218.314 545.164 218.089 544.13 217.64C543.096 217.191 542.286 216.554 541.701 215.729C541.117 214.898 540.793 213.913 540.732 212.774H543.594C543.65 213.457 543.871 214.027 544.259 214.482C544.653 214.932 545.154 215.267 545.764 215.489C546.379 215.704 547.053 215.812 547.786 215.812C548.592 215.812 549.309 215.686 549.937 215.433C550.571 215.175 551.07 214.818 551.433 214.362C551.796 213.901 551.978 213.362 551.978 212.746C551.978 212.186 551.818 211.728 551.498 211.371C551.184 211.014 550.756 210.718 550.214 210.484C549.679 210.25 549.072 210.044 548.395 209.866L546.161 209.256C544.647 208.844 543.446 208.238 542.56 207.438C541.68 206.637 541.24 205.579 541.24 204.261C541.24 203.172 541.535 202.221 542.126 201.408C542.717 200.596 543.517 199.965 544.527 199.516C545.536 199.06 546.675 198.832 547.943 198.832C549.223 198.832 550.353 199.057 551.331 199.506C552.316 199.956 553.092 200.574 553.658 201.362C554.224 202.144 554.52 203.043 554.544 204.058H551.793ZM566.974 212.119V203.818H569.744V218H567.03V215.544H566.882C566.556 216.301 566.032 216.932 565.312 217.437C564.598 217.935 563.709 218.185 562.644 218.185C561.733 218.185 560.927 217.985 560.225 217.585C559.529 217.178 558.982 216.578 558.581 215.784C558.188 214.99 557.991 214.008 557.991 212.839V203.818H560.751V212.506C560.751 213.473 561.019 214.242 561.555 214.815C562.09 215.387 562.786 215.673 563.641 215.673C564.158 215.673 564.672 215.544 565.183 215.286C565.7 215.027 566.128 214.636 566.466 214.113C566.811 213.59 566.98 212.925 566.974 212.119Z" fill="#B3B3B3"/>
<path d="M121 157L581 157" stroke="#A3A3A6" stroke-linecap="round"/>
<path d="M301.427 91.32V108H298.691V96.576L293.603 108H291.707L286.595 96.576V108H283.859V91.32H286.811L292.667 104.4L298.499 91.32H301.427ZM304.111 101.328C304.111 100 304.383 98.824 304.927 97.8C305.487 96.776 306.239 95.984 307.183 95.424C308.143 94.848 309.199 94.56 310.351 94.56C311.391 94.56 312.295 94.768 313.063 95.184C313.847 95.584 314.471 96.088 314.935 96.696V94.776H317.695V108H314.935V106.032C314.471 106.656 313.839 107.176 313.039 107.592C312.239 108.008 311.327 108.216 310.303 108.216C309.167 108.216 308.127 107.928 307.183 107.352C306.239 106.76 305.487 105.944 304.927 104.904C304.383 103.848 304.111 102.656 304.111 101.328ZM314.935 101.376C314.935 100.464 314.743 99.672 314.359 99C313.991 98.328 313.503 97.816 312.895 97.464C312.287 97.112 311.631 96.936 310.927 96.936C310.223 96.936 309.567 97.112 308.959 97.464C308.351 97.8 307.855 98.304 307.471 98.976C307.103 99.632 306.919 100.416 306.919 101.328C306.919 102.24 307.103 103.04 307.471 103.728C307.855 104.416 308.351 104.944 308.959 105.312C309.583 105.664 310.239 105.84 310.927 105.84C311.631 105.84 312.287 105.664 312.895 105.312C313.503 104.96 313.991 104.448 314.359 103.776C314.743 103.088 314.935 102.288 314.935 101.376ZM324.024 96.696C324.424 96.024 324.952 95.504 325.608 95.136C326.28 94.752 327.072 94.56 327.984 94.56V97.392H327.288C326.216 97.392 325.4 97.664 324.84 98.208C324.296 98.752 324.024 99.696 324.024 101.04V108H321.288V94.776H324.024V96.696ZM332.923 105.768H338.923V108H329.755V105.768L335.779 97.008H329.755V94.776H338.923V97.008L332.923 105.768ZM347.532 108.216C346.284 108.216 345.156 107.936 344.148 107.376C343.14 106.8 342.348 106 341.772 104.976C341.196 103.936 340.908 102.736 340.908 101.376C340.908 100.032 341.204 98.84 341.796 97.8C342.388 96.76 343.196 95.96 344.22 95.4C345.244 94.84 346.388 94.56 347.652 94.56C348.916 94.56 350.06 94.84 351.084 95.4C352.108 95.96 352.916 96.76 353.508 97.8C354.1 98.84 354.396 100.032 354.396 101.376C354.396 102.72 354.092 103.912 353.484 104.952C352.876 105.992 352.044 106.8 350.988 107.376C349.948 107.936 348.796 108.216 347.532 108.216ZM347.532 105.84C348.236 105.84 348.892 105.672 349.5 105.336C350.124 105 350.628 104.496 351.012 103.824C351.396 103.152 351.588 102.336 351.588 101.376C351.588 100.416 351.404 99.608 351.036 98.952C350.668 98.28 350.18 97.776 349.572 97.44C348.964 97.104 348.308 96.936 347.604 96.936C346.9 96.936 346.244 97.104 345.636 97.44C345.044 97.776 344.572 98.28 344.22 98.952C343.868 99.608 343.692 100.416 343.692 101.376C343.692 102.8 344.052 103.904 344.772 104.688C345.508 105.456 346.428 105.84 347.532 105.84ZM364.487 104.28C366.023 102.952 367.231 101.864 368.111 101.016C369.007 100.152 369.751 99.256 370.343 98.328C370.935 97.4 371.231 96.472 371.231 95.544C371.231 94.584 370.999 93.832 370.535 93.288C370.087 92.744 369.375 92.472 368.399 92.472C367.455 92.472 366.719 92.776 366.191 93.384C365.679 93.976 365.407 94.776 365.375 95.784H362.735C362.783 93.96 363.327 92.568 364.367 91.608C365.423 90.632 366.759 90.144 368.375 90.144C370.119 90.144 371.479 90.624 372.455 91.584C373.447 92.544 373.943 93.824 373.943 95.424C373.943 96.576 373.647 97.688 373.055 98.76C372.479 99.816 371.783 100.768 370.967 101.616C370.167 102.448 369.143 103.416 367.895 104.52L366.815 105.48H374.423V107.76H362.759V105.768L364.487 104.28ZM376.827 99.024C376.827 96.256 377.291 94.096 378.219 92.544C379.163 90.976 380.779 90.192 383.067 90.192C385.355 90.192 386.963 90.976 387.891 92.544C388.835 94.096 389.307 96.256 389.307 99.024C389.307 101.824 388.835 104.016 387.891 105.6C386.963 107.168 385.355 107.952 383.067 107.952C380.779 107.952 379.163 107.168 378.219 105.6C377.291 104.016 376.827 101.824 376.827 99.024ZM386.619 99.024C386.619 97.728 386.531 96.632 386.355 95.736C386.195 94.84 385.859 94.112 385.347 93.552C384.835 92.976 384.075 92.688 383.067 92.688C382.059 92.688 381.299 92.976 380.787 93.552C380.275 94.112 379.931 94.84 379.755 95.736C379.595 96.632 379.515 97.728 379.515 99.024C379.515 100.368 379.595 101.496 379.755 102.408C379.915 103.32 380.251 104.056 380.763 104.616C381.291 105.176 382.059 105.456 383.067 105.456C384.075 105.456 384.835 105.176 385.347 104.616C385.875 104.056 386.219 103.32 386.379 102.408C386.539 101.496 386.619 100.368 386.619 99.024ZM393.714 104.28C395.25 102.952 396.458 101.864 397.338 101.016C398.234 100.152 398.978 99.256 399.57 98.328C400.162 97.4 400.458 96.472 400.458 95.544C400.458 94.584 400.226 93.832 399.762 93.288C399.314 92.744 398.602 92.472 397.626 92.472C396.682 92.472 395.946 92.776 395.418 93.384C394.906 93.976 394.634 94.776 394.602 95.784H391.962C392.01 93.96 392.554 92.568 393.594 91.608C394.65 90.632 395.986 90.144 397.602 90.144C399.346 90.144 400.706 90.624 401.682 91.584C402.674 92.544 403.17 93.824 403.17 95.424C403.17 96.576 402.874 97.688 402.282 98.76C401.706 99.816 401.01 100.768 400.194 101.616C399.394 102.448 398.37 103.416 397.122 104.52L396.042 105.48H403.65V107.76H391.986V105.768L393.714 104.28ZM417.333 92.856H409.293V97.632C409.629 97.184 410.125 96.808 410.781 96.504C411.453 96.2 412.165 96.048 412.917 96.048C414.261 96.048 415.349 96.336 416.181 96.912C417.029 97.488 417.629 98.216 417.981 99.096C418.349 99.976 418.533 100.904 418.533 101.88C418.533 103.064 418.301 104.12 417.837 105.048C417.389 105.96 416.709 106.68 415.797 107.208C414.901 107.736 413.797 108 412.485 108C410.741 108 409.341 107.568 408.285 106.704C407.229 105.84 406.597 104.696 406.389 103.272H409.053C409.229 104.024 409.621 104.624 410.229 105.072C410.837 105.504 411.597 105.72 412.509 105.72C413.645 105.72 414.493 105.376 415.053 104.688C415.629 104 415.917 103.088 415.917 101.952C415.917 100.8 415.629 99.92 415.053 99.312C414.477 98.688 413.629 98.376 412.509 98.376C411.725 98.376 411.061 98.576 410.517 98.976C409.989 99.36 409.605 99.888 409.365 100.56H406.773V90.456H417.333V92.856Z" fill="#1B1B1B"/>
<g filter="url(#filter2_d_1_161)">
<rect x="526" y="71" width="58" height="58" rx="20" fill="white"/>
<rect x="527.5" y="72.5" width="55" height="55" rx="18.5" stroke="#F6F6F6" stroke-width="3"/>
</g>
<line x1="552.121" y1="92" x2="559.899" y2="99.7782" stroke="#D5D5D5" stroke-width="3" stroke-linecap="round"/>
<line x1="1.5" y1="-1.5" x2="12.5" y2="-1.5" transform="matrix(0.707107 -0.707107 -0.707107 -0.707107 550 107.9)" stroke="#D5D5D5" stroke-width="3" stroke-linecap="round"/>
<g filter="url(#filter3_d_1_161)">
<rect x="118" y="71" width="58" height="58" rx="20" fill="white"/>
<rect x="119.5" y="72.5" width="55" height="55" rx="18.5" stroke="#F6F6F6" stroke-width="3"/>
</g>
<line x1="1.5" y1="-1.5" x2="12.5" y2="-1.5" transform="matrix(-0.707107 0.707107 0.707107 0.707107 151.899 92)" stroke="#B3B3B3" stroke-width="3" stroke-linecap="round"/>
<line x1="149.778" y1="107.9" x2="142" y2="100.121" stroke="#B3B3B3" stroke-width="3" stroke-linecap="round"/>
<path d="M353.543 272.025V292H350.248V275.936L345.367 277.59V274.869L353.146 272.025H353.543Z" fill="#1B1B1B"/>
<path d="M425.891 289.375V292H412.547V289.744L419.027 282.676C419.738 281.874 420.299 281.181 420.709 280.598C421.119 280.014 421.406 279.49 421.57 279.025C421.743 278.551 421.83 278.091 421.83 277.645C421.83 277.016 421.712 276.464 421.475 275.99C421.247 275.507 420.91 275.129 420.463 274.855C420.016 274.573 419.474 274.432 418.836 274.432C418.098 274.432 417.478 274.591 416.977 274.91C416.475 275.229 416.097 275.671 415.842 276.236C415.587 276.792 415.459 277.43 415.459 278.15H412.164C412.164 276.993 412.428 275.936 412.957 274.979C413.486 274.012 414.251 273.247 415.254 272.682C416.257 272.107 417.464 271.82 418.877 271.82C420.208 271.82 421.338 272.044 422.268 272.49C423.197 272.937 423.904 273.57 424.387 274.391C424.879 275.211 425.125 276.182 425.125 277.303C425.125 277.923 425.025 278.538 424.824 279.148C424.624 279.759 424.337 280.37 423.963 280.98C423.598 281.582 423.165 282.188 422.664 282.799C422.163 283.4 421.611 284.011 421.01 284.631L416.703 289.375H425.891Z" fill="#1B1B1B"/>
<path d="M484.416 280.557H486.385C487.15 280.557 487.784 280.424 488.285 280.16C488.796 279.896 489.174 279.531 489.42 279.066C489.666 278.602 489.789 278.068 489.789 277.467C489.789 276.838 489.675 276.3 489.447 275.854C489.229 275.398 488.891 275.047 488.436 274.801C487.989 274.555 487.419 274.432 486.727 274.432C486.143 274.432 485.615 274.55 485.141 274.787C484.676 275.015 484.307 275.343 484.033 275.771C483.76 276.191 483.623 276.692 483.623 277.275H480.314C480.314 276.218 480.592 275.279 481.148 274.459C481.704 273.639 482.461 272.996 483.418 272.531C484.384 272.057 485.469 271.82 486.672 271.82C487.957 271.82 489.078 272.035 490.035 272.463C491.001 272.882 491.753 273.511 492.291 274.35C492.829 275.188 493.098 276.227 493.098 277.467C493.098 278.032 492.965 278.606 492.701 279.189C492.437 279.773 492.045 280.306 491.525 280.789C491.006 281.263 490.359 281.65 489.584 281.951C488.809 282.243 487.911 282.389 486.891 282.389H484.416V280.557ZM484.416 283.127V281.322H486.891C488.057 281.322 489.051 281.459 489.871 281.732C490.701 282.006 491.375 282.384 491.895 282.867C492.414 283.341 492.792 283.883 493.029 284.494C493.275 285.105 493.398 285.752 493.398 286.436C493.398 287.365 493.23 288.195 492.893 288.924C492.564 289.644 492.095 290.255 491.484 290.756C490.874 291.257 490.158 291.635 489.338 291.891C488.527 292.146 487.643 292.273 486.686 292.273C485.829 292.273 485.008 292.155 484.225 291.918C483.441 291.681 482.739 291.33 482.119 290.865C481.499 290.391 481.007 289.803 480.643 289.102C480.287 288.391 480.109 287.57 480.109 286.641H483.404C483.404 287.233 483.541 287.757 483.814 288.213C484.097 288.66 484.489 289.01 484.99 289.266C485.501 289.521 486.084 289.648 486.74 289.648C487.433 289.648 488.03 289.525 488.531 289.279C489.033 289.033 489.415 288.669 489.68 288.186C489.953 287.702 490.09 287.119 490.09 286.436C490.09 285.661 489.939 285.032 489.639 284.549C489.338 284.066 488.91 283.71 488.354 283.482C487.798 283.245 487.141 283.127 486.385 283.127H484.416Z" fill="#1B1B1B"/>
<path d="M562.26 284.904V287.529H547.904L547.795 285.547L556.381 272.094H559.02L556.162 276.988L551.227 284.904H562.26ZM559.771 272.094V292H556.477V272.094H559.771Z" fill="#1B1B1B"/>
<path d="M549.586 352.025V372H546.291V355.936L541.41 357.59V354.869L549.189 352.025H549.586ZM565.5 352.025V372H562.205V355.936L557.324 357.59V354.869L565.104 352.025H565.5Z" fill="#1B1B1B"/>
<path d="M481.586 352.025V372H478.291V355.936L473.41 357.59V354.869L481.189 352.025H481.586ZM501.479 360.379V363.633C501.479 365.191 501.324 366.522 501.014 367.625C500.713 368.719 500.275 369.607 499.701 370.291C499.127 370.975 498.439 371.476 497.637 371.795C496.844 372.114 495.955 372.273 494.971 372.273C494.187 372.273 493.458 372.173 492.783 371.973C492.118 371.772 491.516 371.458 490.979 371.029C490.441 370.601 489.98 370.049 489.598 369.375C489.224 368.691 488.932 367.876 488.723 366.928C488.522 365.98 488.422 364.882 488.422 363.633V360.379C488.422 358.811 488.577 357.49 488.887 356.414C489.197 355.329 489.639 354.45 490.213 353.775C490.787 353.092 491.471 352.595 492.264 352.285C493.066 351.975 493.959 351.82 494.943 351.82C495.736 351.82 496.465 351.921 497.131 352.121C497.805 352.312 498.407 352.618 498.936 353.037C499.473 353.456 499.929 354.003 500.303 354.678C500.686 355.343 500.977 356.15 501.178 357.098C501.378 358.036 501.479 359.13 501.479 360.379ZM498.184 364.098V359.887C498.184 359.094 498.138 358.396 498.047 357.795C497.956 357.184 497.819 356.669 497.637 356.25C497.464 355.822 497.245 355.475 496.98 355.211C496.716 354.938 496.415 354.742 496.078 354.623C495.741 354.495 495.363 354.432 494.943 354.432C494.433 354.432 493.977 354.532 493.576 354.732C493.175 354.924 492.838 355.234 492.564 355.662C492.291 356.09 492.081 356.656 491.936 357.357C491.799 358.05 491.73 358.893 491.73 359.887V364.098C491.73 364.9 491.776 365.606 491.867 366.217C491.958 366.827 492.095 367.352 492.277 367.789C492.46 368.217 492.678 368.573 492.934 368.855C493.198 369.129 493.499 369.329 493.836 369.457C494.182 369.585 494.561 369.648 494.971 369.648C495.49 369.648 495.951 369.548 496.352 369.348C496.753 369.147 497.09 368.828 497.363 368.391C497.637 367.944 497.842 367.365 497.979 366.654C498.115 365.943 498.184 365.091 498.184 364.098Z" fill="#1B1B1B"/>
<path d="M415.199 369.402H415.473C416.73 369.402 417.779 369.238 418.617 368.91C419.465 368.573 420.139 368.108 420.641 367.516C421.142 366.923 421.502 366.226 421.721 365.424C421.939 364.622 422.049 363.751 422.049 362.812V359.381C422.049 358.57 421.962 357.859 421.789 357.248C421.625 356.628 421.388 356.113 421.078 355.703C420.777 355.284 420.426 354.969 420.025 354.76C419.633 354.55 419.21 354.445 418.754 354.445C418.253 354.445 417.801 354.559 417.4 354.787C417.008 355.006 416.676 355.311 416.402 355.703C416.138 356.086 415.933 356.537 415.787 357.057C415.65 357.567 415.582 358.114 415.582 358.697C415.582 359.244 415.646 359.773 415.773 360.283C415.91 360.785 416.111 361.231 416.375 361.623C416.639 362.015 416.972 362.325 417.373 362.553C417.774 362.781 418.243 362.895 418.781 362.895C419.292 362.895 419.761 362.799 420.189 362.607C420.618 362.407 420.992 362.138 421.311 361.801C421.63 361.464 421.88 361.085 422.062 360.666C422.245 360.247 422.345 359.818 422.363 359.381L423.621 359.764C423.621 360.456 423.475 361.14 423.184 361.814C422.901 362.48 422.505 363.09 421.994 363.646C421.493 364.193 420.905 364.631 420.23 364.959C419.565 365.287 418.84 365.451 418.057 365.451C417.109 365.451 416.27 365.273 415.541 364.918C414.821 364.553 414.219 364.061 413.736 363.441C413.262 362.822 412.907 362.111 412.67 361.309C412.433 360.507 412.314 359.663 412.314 358.779C412.314 357.822 412.46 356.924 412.752 356.086C413.044 355.247 413.467 354.509 414.023 353.871C414.579 353.224 415.254 352.723 416.047 352.367C416.849 352.003 417.756 351.82 418.768 351.82C419.843 351.82 420.786 352.03 421.598 352.449C422.409 352.868 423.092 353.447 423.648 354.186C424.204 354.924 424.624 355.781 424.906 356.756C425.189 357.731 425.33 358.779 425.33 359.9V361.062C425.33 362.238 425.225 363.373 425.016 364.467C424.806 365.551 424.464 366.559 423.99 367.488C423.525 368.409 422.91 369.22 422.145 369.922C421.388 370.615 420.458 371.157 419.355 371.549C418.262 371.932 416.977 372.123 415.5 372.123H415.199V369.402Z" fill="#1B1B1B"/>
<path d="M357.562 366.572C357.562 367.812 357.275 368.855 356.701 369.703C356.127 370.551 355.343 371.193 354.35 371.631C353.365 372.059 352.253 372.273 351.014 372.273C349.774 372.273 348.658 372.059 347.664 371.631C346.671 371.193 345.887 370.551 345.312 369.703C344.738 368.855 344.451 367.812 344.451 366.572C344.451 365.752 344.611 365.009 344.93 364.344C345.249 363.669 345.7 363.09 346.283 362.607C346.876 362.115 347.568 361.737 348.361 361.473C349.163 361.208 350.038 361.076 350.986 361.076C352.244 361.076 353.37 361.309 354.363 361.773C355.357 362.238 356.136 362.881 356.701 363.701C357.275 364.521 357.562 365.479 357.562 366.572ZM354.254 366.408C354.254 365.743 354.117 365.16 353.844 364.658C353.57 364.157 353.188 363.77 352.695 363.496C352.203 363.223 351.633 363.086 350.986 363.086C350.33 363.086 349.76 363.223 349.277 363.496C348.794 363.77 348.416 364.157 348.143 364.658C347.878 365.16 347.746 365.743 347.746 366.408C347.746 367.083 347.878 367.666 348.143 368.158C348.407 368.641 348.785 369.01 349.277 369.266C349.77 369.521 350.348 369.648 351.014 369.648C351.679 369.648 352.253 369.521 352.736 369.266C353.219 369.01 353.593 368.641 353.857 368.158C354.122 367.666 354.254 367.083 354.254 366.408ZM357.111 357.33C357.111 358.324 356.847 359.208 356.318 359.982C355.799 360.757 355.079 361.368 354.158 361.814C353.238 362.252 352.189 362.471 351.014 362.471C349.829 362.471 348.771 362.252 347.842 361.814C346.921 361.368 346.197 360.757 345.668 359.982C345.148 359.208 344.889 358.324 344.889 357.33C344.889 356.145 345.148 355.147 345.668 354.336C346.197 353.516 346.921 352.891 347.842 352.463C348.762 352.035 349.815 351.82 351 351.82C352.185 351.82 353.238 352.035 354.158 352.463C355.079 352.891 355.799 353.516 356.318 354.336C356.847 355.147 357.111 356.145 357.111 357.33ZM353.816 357.439C353.816 356.847 353.698 356.327 353.461 355.881C353.233 355.425 352.91 355.07 352.49 354.814C352.071 354.559 351.574 354.432 351 354.432C350.426 354.432 349.929 354.555 349.51 354.801C349.09 355.047 348.767 355.393 348.539 355.84C348.311 356.286 348.197 356.82 348.197 357.439C348.197 358.05 348.311 358.583 348.539 359.039C348.767 359.486 349.09 359.837 349.51 360.092C349.938 360.347 350.439 360.475 351.014 360.475C351.588 360.475 352.085 360.347 352.504 360.092C352.923 359.837 353.247 359.486 353.475 359.039C353.702 358.583 353.816 358.05 353.816 357.439Z" fill="#1B1B1B"/>
<path d="M218.5 351.971H218.91V354.664H218.678C217.502 354.664 216.486 354.846 215.629 355.211C214.781 355.576 214.084 356.077 213.537 356.715C212.99 357.353 212.58 358.1 212.307 358.957C212.042 359.805 211.91 360.707 211.91 361.664V364.795C211.91 365.588 211.997 366.29 212.17 366.9C212.343 367.502 212.585 368.008 212.895 368.418C213.214 368.819 213.578 369.124 213.988 369.334C214.398 369.544 214.84 369.648 215.314 369.648C215.807 369.648 216.253 369.548 216.654 369.348C217.055 369.138 217.397 368.851 217.68 368.486C217.962 368.122 218.176 367.689 218.322 367.188C218.468 366.686 218.541 366.139 218.541 365.547C218.541 364.982 218.468 364.453 218.322 363.961C218.186 363.46 217.98 363.022 217.707 362.648C217.434 362.266 217.092 361.969 216.682 361.76C216.281 361.541 215.816 361.432 215.287 361.432C214.631 361.432 214.034 361.587 213.496 361.896C212.967 362.206 212.539 362.612 212.211 363.113C211.892 363.605 211.719 364.13 211.691 364.686L210.434 364.275C210.507 363.428 210.693 362.667 210.994 361.992C211.304 361.318 211.71 360.743 212.211 360.27C212.712 359.796 213.291 359.436 213.947 359.189C214.613 358.934 215.342 358.807 216.135 358.807C217.101 358.807 217.939 358.989 218.65 359.354C219.361 359.718 219.949 360.215 220.414 360.844C220.888 361.464 221.239 362.174 221.467 362.977C221.704 363.77 221.822 364.599 221.822 365.465C221.822 366.422 221.676 367.315 221.385 368.145C221.093 368.965 220.665 369.685 220.1 370.305C219.544 370.924 218.865 371.408 218.062 371.754C217.27 372.1 216.367 372.273 215.355 372.273C214.289 372.273 213.337 372.068 212.498 371.658C211.669 371.248 210.962 370.683 210.379 369.963C209.805 369.243 209.367 368.413 209.066 367.475C208.766 366.536 208.615 365.542 208.615 364.494V363.127C208.615 361.614 208.807 360.188 209.189 358.848C209.572 357.499 210.16 356.309 210.953 355.279C211.755 354.249 212.781 353.443 214.029 352.859C215.278 352.267 216.768 351.971 218.5 351.971Z" fill="#1B1B1B"/>
<path d="M144.006 362.744L141.381 362.102L142.461 352.094H153.193V354.883H145.195L144.648 359.764C144.958 359.581 145.387 359.404 145.934 359.23C146.48 359.048 147.105 358.957 147.807 358.957C148.745 358.957 149.584 359.112 150.322 359.422C151.07 359.723 151.703 360.165 152.223 360.748C152.742 361.322 153.139 362.024 153.412 362.854C153.686 363.674 153.822 364.599 153.822 365.629C153.822 366.549 153.686 367.411 153.412 368.213C153.148 369.015 152.747 369.721 152.209 370.332C151.671 370.943 150.992 371.421 150.172 371.768C149.361 372.105 148.399 372.273 147.287 372.273C146.458 372.273 145.66 372.155 144.895 371.918C144.138 371.672 143.459 371.312 142.857 370.838C142.256 370.355 141.773 369.762 141.408 369.061C141.044 368.35 140.834 367.534 140.779 366.613H144.006C144.088 367.26 144.266 367.812 144.539 368.268C144.822 368.714 145.195 369.056 145.66 369.293C146.125 369.53 146.663 369.648 147.273 369.648C147.829 369.648 148.308 369.553 148.709 369.361C149.11 369.161 149.443 368.878 149.707 368.514C149.98 368.14 150.181 367.702 150.309 367.201C150.445 366.7 150.514 366.144 150.514 365.533C150.514 364.95 150.436 364.417 150.281 363.934C150.135 363.451 149.912 363.031 149.611 362.676C149.32 362.32 148.951 362.047 148.504 361.855C148.057 361.655 147.542 361.555 146.959 361.555C146.175 361.555 145.574 361.669 145.154 361.896C144.744 362.124 144.361 362.407 144.006 362.744Z" fill="#1B1B1B"/>
<path d="M141.586 432.025V452H138.291V435.936L133.41 437.59V434.869L141.189 432.025H141.586ZM161.848 449.375V452H148.504V449.744L154.984 442.676C155.695 441.874 156.256 441.181 156.666 440.598C157.076 440.014 157.363 439.49 157.527 439.025C157.701 438.551 157.787 438.091 157.787 437.645C157.787 437.016 157.669 436.464 157.432 435.99C157.204 435.507 156.867 435.129 156.42 434.855C155.973 434.573 155.431 434.432 154.793 434.432C154.055 434.432 153.435 434.591 152.934 434.91C152.432 435.229 152.054 435.671 151.799 436.236C151.544 436.792 151.416 437.43 151.416 438.15H148.121C148.121 436.993 148.385 435.936 148.914 434.979C149.443 434.012 150.208 433.247 151.211 432.682C152.214 432.107 153.421 431.82 154.834 431.82C156.165 431.82 157.295 432.044 158.225 432.49C159.154 432.937 159.861 433.57 160.344 434.391C160.836 435.211 161.082 436.182 161.082 437.303C161.082 437.923 160.982 438.538 160.781 439.148C160.581 439.759 160.294 440.37 159.92 440.98C159.555 441.582 159.122 442.188 158.621 442.799C158.12 443.4 157.568 444.011 156.967 444.631L152.66 449.375H161.848Z" fill="#1B1B1B"/>
<path d="M209.586 432.025V452H206.291V435.936L201.41 437.59V434.869L209.189 432.025H209.586ZM220.373 440.557H222.342C223.107 440.557 223.741 440.424 224.242 440.16C224.753 439.896 225.131 439.531 225.377 439.066C225.623 438.602 225.746 438.068 225.746 437.467C225.746 436.838 225.632 436.3 225.404 435.854C225.186 435.398 224.848 435.047 224.393 434.801C223.946 434.555 223.376 434.432 222.684 434.432C222.1 434.432 221.572 434.55 221.098 434.787C220.633 435.015 220.264 435.343 219.99 435.771C219.717 436.191 219.58 436.692 219.58 437.275H216.271C216.271 436.218 216.549 435.279 217.105 434.459C217.661 433.639 218.418 432.996 219.375 432.531C220.341 432.057 221.426 431.82 222.629 431.82C223.914 431.82 225.035 432.035 225.992 432.463C226.958 432.882 227.71 433.511 228.248 434.35C228.786 435.188 229.055 436.227 229.055 437.467C229.055 438.032 228.923 438.606 228.658 439.189C228.394 439.773 228.002 440.306 227.482 440.789C226.963 441.263 226.316 441.65 225.541 441.951C224.766 442.243 223.868 442.389 222.848 442.389H220.373V440.557ZM220.373 443.127V441.322H222.848C224.014 441.322 225.008 441.459 225.828 441.732C226.658 442.006 227.332 442.384 227.852 442.867C228.371 443.341 228.749 443.883 228.986 444.494C229.232 445.105 229.355 445.752 229.355 446.436C229.355 447.365 229.187 448.195 228.85 448.924C228.521 449.644 228.052 450.255 227.441 450.756C226.831 451.257 226.115 451.635 225.295 451.891C224.484 452.146 223.6 452.273 222.643 452.273C221.786 452.273 220.965 452.155 220.182 451.918C219.398 451.681 218.696 451.33 218.076 450.865C217.456 450.391 216.964 449.803 216.6 449.102C216.244 448.391 216.066 447.57 216.066 446.641H219.361C219.361 447.233 219.498 447.757 219.771 448.213C220.054 448.66 220.446 449.01 220.947 449.266C221.458 449.521 222.041 449.648 222.697 449.648C223.39 449.648 223.987 449.525 224.488 449.279C224.99 449.033 225.372 448.669 225.637 448.186C225.91 447.702 226.047 447.119 226.047 446.436C226.047 445.661 225.896 445.032 225.596 444.549C225.295 444.066 224.867 443.71 224.311 443.482C223.755 443.245 223.098 443.127 222.342 443.127H220.373Z" fill="#1B1B1B"/>
<path d="M277.586 432.025V452H274.291V435.936L269.41 437.59V434.869L277.189 432.025H277.586ZM298.217 444.904V447.529H283.861L283.752 445.547L292.338 432.094H294.977L292.119 436.988L287.184 444.904H298.217ZM295.729 432.094V452H292.434V432.094H295.729Z" fill="#1B1B1B"/>
<path d="M345.586 432.025V452H342.291V435.936L337.41 437.59V434.869L345.189 432.025H345.586ZM355.963 442.744L353.338 442.102L354.418 432.094H365.15V434.883H357.152L356.605 439.764C356.915 439.581 357.344 439.404 357.891 439.23C358.438 439.048 359.062 438.957 359.764 438.957C360.702 438.957 361.541 439.112 362.279 439.422C363.027 439.723 363.66 440.165 364.18 440.748C364.699 441.322 365.096 442.024 365.369 442.854C365.643 443.674 365.779 444.599 365.779 445.629C365.779 446.549 365.643 447.411 365.369 448.213C365.105 449.015 364.704 449.721 364.166 450.332C363.628 450.943 362.949 451.421 362.129 451.768C361.318 452.105 360.356 452.273 359.244 452.273C358.415 452.273 357.617 452.155 356.852 451.918C356.095 451.672 355.416 451.312 354.814 450.838C354.213 450.355 353.73 449.762 353.365 449.061C353.001 448.35 352.791 447.534 352.736 446.613H355.963C356.045 447.26 356.223 447.812 356.496 448.268C356.779 448.714 357.152 449.056 357.617 449.293C358.082 449.53 358.62 449.648 359.23 449.648C359.786 449.648 360.265 449.553 360.666 449.361C361.067 449.161 361.4 448.878 361.664 448.514C361.938 448.14 362.138 447.702 362.266 447.201C362.402 446.7 362.471 446.144 362.471 445.533C362.471 444.95 362.393 444.417 362.238 443.934C362.092 443.451 361.869 443.031 361.568 442.676C361.277 442.32 360.908 442.047 360.461 441.855C360.014 441.655 359.499 441.555 358.916 441.555C358.132 441.555 357.531 441.669 357.111 441.896C356.701 442.124 356.318 442.407 355.963 442.744Z" fill="#1B1B1B"/>
<path d="M413.586 432.025V452H410.291V435.936L405.41 437.59V434.869L413.189 432.025H413.586ZM430.457 431.971H430.867V434.664H430.635C429.459 434.664 428.443 434.846 427.586 435.211C426.738 435.576 426.041 436.077 425.494 436.715C424.947 437.353 424.537 438.1 424.264 438.957C423.999 439.805 423.867 440.707 423.867 441.664V444.795C423.867 445.588 423.954 446.29 424.127 446.9C424.3 447.502 424.542 448.008 424.852 448.418C425.171 448.819 425.535 449.124 425.945 449.334C426.355 449.544 426.798 449.648 427.271 449.648C427.764 449.648 428.21 449.548 428.611 449.348C429.012 449.138 429.354 448.851 429.637 448.486C429.919 448.122 430.133 447.689 430.279 447.188C430.425 446.686 430.498 446.139 430.498 445.547C430.498 444.982 430.425 444.453 430.279 443.961C430.143 443.46 429.938 443.022 429.664 442.648C429.391 442.266 429.049 441.969 428.639 441.76C428.238 441.541 427.773 441.432 427.244 441.432C426.588 441.432 425.991 441.587 425.453 441.896C424.924 442.206 424.496 442.612 424.168 443.113C423.849 443.605 423.676 444.13 423.648 444.686L422.391 444.275C422.464 443.428 422.65 442.667 422.951 441.992C423.261 441.318 423.667 440.743 424.168 440.27C424.669 439.796 425.248 439.436 425.904 439.189C426.57 438.934 427.299 438.807 428.092 438.807C429.058 438.807 429.896 438.989 430.607 439.354C431.318 439.718 431.906 440.215 432.371 440.844C432.845 441.464 433.196 442.174 433.424 442.977C433.661 443.77 433.779 444.599 433.779 445.465C433.779 446.422 433.633 447.315 433.342 448.145C433.05 448.965 432.622 449.685 432.057 450.305C431.501 450.924 430.822 451.408 430.02 451.754C429.227 452.1 428.324 452.273 427.312 452.273C426.246 452.273 425.294 452.068 424.455 451.658C423.626 451.248 422.919 450.683 422.336 449.963C421.762 449.243 421.324 448.413 421.023 447.475C420.723 446.536 420.572 445.542 420.572 444.494V443.127C420.572 441.614 420.764 440.188 421.146 438.848C421.529 437.499 422.117 436.309 422.91 435.279C423.712 434.249 424.738 433.443 425.986 432.859C427.235 432.267 428.725 431.971 430.457 431.971Z" fill="#1B1B1B"/>
<path d="M481.586 432.025V452H478.291V435.936L473.41 437.59V434.869L481.189 432.025H481.586ZM501.725 432.094V433.898L493.768 452H490.295L498.238 434.719H487.93V432.094H501.725Z" fill="#1B1B1B"/>
<path d="M549.586 432.025V452H546.291V435.936L541.41 437.59V434.869L549.189 432.025H549.586ZM569.52 446.572C569.52 447.812 569.232 448.855 568.658 449.703C568.084 450.551 567.3 451.193 566.307 451.631C565.322 452.059 564.21 452.273 562.971 452.273C561.731 452.273 560.615 452.059 559.621 451.631C558.628 451.193 557.844 450.551 557.27 449.703C556.695 448.855 556.408 447.812 556.408 446.572C556.408 445.752 556.568 445.009 556.887 444.344C557.206 443.669 557.657 443.09 558.24 442.607C558.833 442.115 559.525 441.737 560.318 441.473C561.12 441.208 561.995 441.076 562.943 441.076C564.201 441.076 565.327 441.309 566.32 441.773C567.314 442.238 568.093 442.881 568.658 443.701C569.232 444.521 569.52 445.479 569.52 446.572ZM566.211 446.408C566.211 445.743 566.074 445.16 565.801 444.658C565.527 444.157 565.145 443.77 564.652 443.496C564.16 443.223 563.59 443.086 562.943 443.086C562.287 443.086 561.717 443.223 561.234 443.496C560.751 443.77 560.373 444.157 560.1 444.658C559.835 445.16 559.703 445.743 559.703 446.408C559.703 447.083 559.835 447.666 560.1 448.158C560.364 448.641 560.742 449.01 561.234 449.266C561.727 449.521 562.305 449.648 562.971 449.648C563.636 449.648 564.21 449.521 564.693 449.266C565.176 449.01 565.55 448.641 565.814 448.158C566.079 447.666 566.211 447.083 566.211 446.408ZM569.068 437.33C569.068 438.324 568.804 439.208 568.275 439.982C567.756 440.757 567.036 441.368 566.115 441.814C565.195 442.252 564.146 442.471 562.971 442.471C561.786 442.471 560.729 442.252 559.799 441.814C558.878 441.368 558.154 440.757 557.625 439.982C557.105 439.208 556.846 438.324 556.846 437.33C556.846 436.145 557.105 435.147 557.625 434.336C558.154 433.516 558.878 432.891 559.799 432.463C560.719 432.035 561.772 431.82 562.957 431.82C564.142 431.82 565.195 432.035 566.115 432.463C567.036 432.891 567.756 433.516 568.275 434.336C568.804 435.147 569.068 436.145 569.068 437.33ZM565.773 437.439C565.773 436.847 565.655 436.327 565.418 435.881C565.19 435.425 564.867 435.07 564.447 434.814C564.028 434.559 563.531 434.432 562.957 434.432C562.383 434.432 561.886 434.555 561.467 434.801C561.048 435.047 560.724 435.393 560.496 435.84C560.268 436.286 560.154 436.82 560.154 437.439C560.154 438.05 560.268 438.583 560.496 439.039C560.724 439.486 561.048 439.837 561.467 440.092C561.895 440.347 562.396 440.475 562.971 440.475C563.545 440.475 564.042 440.347 564.461 440.092C564.88 439.837 565.204 439.486 565.432 439.039C565.66 438.583 565.773 438.05 565.773 437.439Z" fill="#1B1B1B"/>
<path d="M213.934 529.375V532H200.59V529.744L207.07 522.676C207.781 521.874 208.342 521.181 208.752 520.598C209.162 520.014 209.449 519.49 209.613 519.025C209.786 518.551 209.873 518.091 209.873 517.645C209.873 517.016 209.755 516.464 209.518 515.99C209.29 515.507 208.952 515.129 208.506 514.855C208.059 514.573 207.517 514.432 206.879 514.432C206.141 514.432 205.521 514.591 205.02 514.91C204.518 515.229 204.14 515.671 203.885 516.236C203.63 516.792 203.502 517.43 203.502 518.15H200.207C200.207 516.993 200.471 515.936 201 514.979C201.529 514.012 202.294 513.247 203.297 512.682C204.299 512.107 205.507 511.82 206.92 511.82C208.251 511.82 209.381 512.044 210.311 512.49C211.24 512.937 211.947 513.57 212.43 514.391C212.922 515.211 213.168 516.182 213.168 517.303C213.168 517.923 213.068 518.538 212.867 519.148C212.667 519.759 212.38 520.37 212.006 520.98C211.641 521.582 211.208 522.188 210.707 522.799C210.206 523.4 209.654 524.011 209.053 524.631L204.746 529.375H213.934ZM229.479 520.379V523.633C229.479 525.191 229.324 526.522 229.014 527.625C228.713 528.719 228.275 529.607 227.701 530.291C227.127 530.975 226.439 531.476 225.637 531.795C224.844 532.114 223.955 532.273 222.971 532.273C222.187 532.273 221.458 532.173 220.783 531.973C220.118 531.772 219.516 531.458 218.979 531.029C218.441 530.601 217.98 530.049 217.598 529.375C217.224 528.691 216.932 527.876 216.723 526.928C216.522 525.98 216.422 524.882 216.422 523.633V520.379C216.422 518.811 216.577 517.49 216.887 516.414C217.197 515.329 217.639 514.45 218.213 513.775C218.787 513.092 219.471 512.595 220.264 512.285C221.066 511.975 221.959 511.82 222.943 511.82C223.736 511.82 224.465 511.921 225.131 512.121C225.805 512.312 226.407 512.618 226.936 513.037C227.473 513.456 227.929 514.003 228.303 514.678C228.686 515.343 228.977 516.15 229.178 517.098C229.378 518.036 229.479 519.13 229.479 520.379ZM226.184 524.098V519.887C226.184 519.094 226.138 518.396 226.047 517.795C225.956 517.184 225.819 516.669 225.637 516.25C225.464 515.822 225.245 515.475 224.98 515.211C224.716 514.938 224.415 514.742 224.078 514.623C223.741 514.495 223.363 514.432 222.943 514.432C222.433 514.432 221.977 514.532 221.576 514.732C221.175 514.924 220.838 515.234 220.564 515.662C220.291 516.09 220.081 516.656 219.936 517.357C219.799 518.05 219.73 518.893 219.73 519.887V524.098C219.73 524.9 219.776 525.606 219.867 526.217C219.958 526.827 220.095 527.352 220.277 527.789C220.46 528.217 220.678 528.573 220.934 528.855C221.198 529.129 221.499 529.329 221.836 529.457C222.182 529.585 222.561 529.648 222.971 529.648C223.49 529.648 223.951 529.548 224.352 529.348C224.753 529.147 225.09 528.828 225.363 528.391C225.637 527.944 225.842 527.365 225.979 526.654C226.115 525.943 226.184 525.091 226.184 524.098Z" fill="#1B1B1B"/>
<path d="M281.934 529.375V532H268.59V529.744L275.07 522.676C275.781 521.874 276.342 521.181 276.752 520.598C277.162 520.014 277.449 519.49 277.613 519.025C277.786 518.551 277.873 518.091 277.873 517.645C277.873 517.016 277.755 516.464 277.518 515.99C277.29 515.507 276.952 515.129 276.506 514.855C276.059 514.573 275.517 514.432 274.879 514.432C274.141 514.432 273.521 514.591 273.02 514.91C272.518 515.229 272.14 515.671 271.885 516.236C271.63 516.792 271.502 517.43 271.502 518.15H268.207C268.207 516.993 268.471 515.936 269 514.979C269.529 514.012 270.294 513.247 271.297 512.682C272.299 512.107 273.507 511.82 274.92 511.82C276.251 511.82 277.381 512.044 278.311 512.49C279.24 512.937 279.947 513.57 280.43 514.391C280.922 515.211 281.168 516.182 281.168 517.303C281.168 517.923 281.068 518.538 280.867 519.148C280.667 519.759 280.38 520.37 280.006 520.98C279.641 521.582 279.208 522.188 278.707 522.799C278.206 523.4 277.654 524.011 277.053 524.631L272.746 529.375H281.934ZM293.5 512.025V532H290.205V515.936L285.324 517.59V514.869L293.104 512.025H293.5Z" fill="#1B1B1B"/>
<path d="M349.934 529.375V532H336.59V529.744L343.07 522.676C343.781 521.874 344.342 521.181 344.752 520.598C345.162 520.014 345.449 519.49 345.613 519.025C345.786 518.551 345.873 518.091 345.873 517.645C345.873 517.016 345.755 516.464 345.518 515.99C345.29 515.507 344.952 515.129 344.506 514.855C344.059 514.573 343.517 514.432 342.879 514.432C342.141 514.432 341.521 514.591 341.02 514.91C340.518 515.229 340.14 515.671 339.885 516.236C339.63 516.792 339.502 517.43 339.502 518.15H336.207C336.207 516.993 336.471 515.936 337 514.979C337.529 514.012 338.294 513.247 339.297 512.682C340.299 512.107 341.507 511.82 342.92 511.82C344.251 511.82 345.381 512.044 346.311 512.49C347.24 512.937 347.947 513.57 348.43 514.391C348.922 515.211 349.168 516.182 349.168 517.303C349.168 517.923 349.068 518.538 348.867 519.148C348.667 519.759 348.38 520.37 348.006 520.98C347.641 521.582 347.208 522.188 346.707 522.799C346.206 523.4 345.654 524.011 345.053 524.631L340.746 529.375H349.934ZM365.848 529.375V532H352.504V529.744L358.984 522.676C359.695 521.874 360.256 521.181 360.666 520.598C361.076 520.014 361.363 519.49 361.527 519.025C361.701 518.551 361.787 518.091 361.787 517.645C361.787 517.016 361.669 516.464 361.432 515.99C361.204 515.507 360.867 515.129 360.42 514.855C359.973 514.573 359.431 514.432 358.793 514.432C358.055 514.432 357.435 514.591 356.934 514.91C356.432 515.229 356.054 515.671 355.799 516.236C355.544 516.792 355.416 517.43 355.416 518.15H352.121C352.121 516.993 352.385 515.936 352.914 514.979C353.443 514.012 354.208 513.247 355.211 512.682C356.214 512.107 357.421 511.82 358.834 511.82C360.165 511.82 361.295 512.044 362.225 512.49C363.154 512.937 363.861 513.57 364.344 514.391C364.836 515.211 365.082 516.182 365.082 517.303C365.082 517.923 364.982 518.538 364.781 519.148C364.581 519.759 364.294 520.37 363.92 520.98C363.555 521.582 363.122 522.188 362.621 522.799C362.12 523.4 361.568 524.011 360.967 524.631L356.66 529.375H365.848Z" fill="#1B1B1B"/>
<path d="M417.934 529.375V532H404.59V529.744L411.07 522.676C411.781 521.874 412.342 521.181 412.752 520.598C413.162 520.014 413.449 519.49 413.613 519.025C413.786 518.551 413.873 518.091 413.873 517.645C413.873 517.016 413.755 516.464 413.518 515.99C413.29 515.507 412.952 515.129 412.506 514.855C412.059 514.573 411.517 514.432 410.879 514.432C410.141 514.432 409.521 514.591 409.02 514.91C408.518 515.229 408.14 515.671 407.885 516.236C407.63 516.792 407.502 517.43 407.502 518.15H404.207C404.207 516.993 404.471 515.936 405 514.979C405.529 514.012 406.294 513.247 407.297 512.682C408.299 512.107 409.507 511.82 410.92 511.82C412.251 511.82 413.381 512.044 414.311 512.49C415.24 512.937 415.947 513.57 416.43 514.391C416.922 515.211 417.168 516.182 417.168 517.303C417.168 517.923 417.068 518.538 416.867 519.148C416.667 519.759 416.38 520.37 416.006 520.98C415.641 521.582 415.208 522.188 414.707 522.799C414.206 523.4 413.654 524.011 413.053 524.631L408.746 529.375H417.934ZM424.373 520.557H426.342C427.107 520.557 427.741 520.424 428.242 520.16C428.753 519.896 429.131 519.531 429.377 519.066C429.623 518.602 429.746 518.068 429.746 517.467C429.746 516.838 429.632 516.3 429.404 515.854C429.186 515.398 428.848 515.047 428.393 514.801C427.946 514.555 427.376 514.432 426.684 514.432C426.1 514.432 425.572 514.55 425.098 514.787C424.633 515.015 424.264 515.343 423.99 515.771C423.717 516.191 423.58 516.692 423.58 517.275H420.271C420.271 516.218 420.549 515.279 421.105 514.459C421.661 513.639 422.418 512.996 423.375 512.531C424.341 512.057 425.426 511.82 426.629 511.82C427.914 511.82 429.035 512.035 429.992 512.463C430.958 512.882 431.71 513.511 432.248 514.35C432.786 515.188 433.055 516.227 433.055 517.467C433.055 518.032 432.923 518.606 432.658 519.189C432.394 519.773 432.002 520.306 431.482 520.789C430.963 521.263 430.316 521.65 429.541 521.951C428.766 522.243 427.868 522.389 426.848 522.389H424.373V520.557ZM424.373 523.127V521.322H426.848C428.014 521.322 429.008 521.459 429.828 521.732C430.658 522.006 431.332 522.384 431.852 522.867C432.371 523.341 432.749 523.883 432.986 524.494C433.232 525.105 433.355 525.752 433.355 526.436C433.355 527.365 433.187 528.195 432.85 528.924C432.521 529.644 432.052 530.255 431.441 530.756C430.831 531.257 430.115 531.635 429.295 531.891C428.484 532.146 427.6 532.273 426.643 532.273C425.786 532.273 424.965 532.155 424.182 531.918C423.398 531.681 422.696 531.33 422.076 530.865C421.456 530.391 420.964 529.803 420.6 529.102C420.244 528.391 420.066 527.57 420.066 526.641H423.361C423.361 527.233 423.498 527.757 423.771 528.213C424.054 528.66 424.446 529.01 424.947 529.266C425.458 529.521 426.041 529.648 426.697 529.648C427.39 529.648 427.987 529.525 428.488 529.279C428.99 529.033 429.372 528.669 429.637 528.186C429.91 527.702 430.047 527.119 430.047 526.436C430.047 525.661 429.896 525.032 429.596 524.549C429.295 524.066 428.867 523.71 428.311 523.482C427.755 523.245 427.098 523.127 426.342 523.127H424.373Z" fill="#1B1B1B"/>
<path d="M485.934 529.375V532H472.59V529.744L479.07 522.676C479.781 521.874 480.342 521.181 480.752 520.598C481.162 520.014 481.449 519.49 481.613 519.025C481.786 518.551 481.873 518.091 481.873 517.645C481.873 517.016 481.755 516.464 481.518 515.99C481.29 515.507 480.952 515.129 480.506 514.855C480.059 514.573 479.517 514.432 478.879 514.432C478.141 514.432 477.521 514.591 477.02 514.91C476.518 515.229 476.14 515.671 475.885 516.236C475.63 516.792 475.502 517.43 475.502 518.15H472.207C472.207 516.993 472.471 515.936 473 514.979C473.529 514.012 474.294 513.247 475.297 512.682C476.299 512.107 477.507 511.82 478.92 511.82C480.251 511.82 481.381 512.044 482.311 512.49C483.24 512.937 483.947 513.57 484.43 514.391C484.922 515.211 485.168 516.182 485.168 517.303C485.168 517.923 485.068 518.538 484.867 519.148C484.667 519.759 484.38 520.37 484.006 520.98C483.641 521.582 483.208 522.188 482.707 522.799C482.206 523.4 481.654 524.011 481.053 524.631L476.746 529.375H485.934ZM502.217 524.904V527.529H487.861L487.752 525.547L496.338 512.094H498.977L496.119 516.988L491.184 524.904H502.217ZM499.729 512.094V532H496.434V512.094H499.729Z" fill="#1B1B1B"/>
<path d="M553.934 529.375V532H540.59V529.744L547.07 522.676C547.781 521.874 548.342 521.181 548.752 520.598C549.162 520.014 549.449 519.49 549.613 519.025C549.786 518.551 549.873 518.091 549.873 517.645C549.873 517.016 549.755 516.464 549.518 515.99C549.29 515.507 548.952 515.129 548.506 514.855C548.059 514.573 547.517 514.432 546.879 514.432C546.141 514.432 545.521 514.591 545.02 514.91C544.518 515.229 544.14 515.671 543.885 516.236C543.63 516.792 543.502 517.43 543.502 518.15H540.207C540.207 516.993 540.471 515.936 541 514.979C541.529 514.012 542.294 513.247 543.297 512.682C544.299 512.107 545.507 511.82 546.92 511.82C548.251 511.82 549.381 512.044 550.311 512.49C551.24 512.937 551.947 513.57 552.43 514.391C552.922 515.211 553.168 516.182 553.168 517.303C553.168 517.923 553.068 518.538 552.867 519.148C552.667 519.759 552.38 520.37 552.006 520.98C551.641 521.582 551.208 522.188 550.707 522.799C550.206 523.4 549.654 524.011 549.053 524.631L544.746 529.375H553.934ZM559.963 522.744L557.338 522.102L558.418 512.094H569.15V514.883H561.152L560.605 519.764C560.915 519.581 561.344 519.404 561.891 519.23C562.438 519.048 563.062 518.957 563.764 518.957C564.702 518.957 565.541 519.112 566.279 519.422C567.027 519.723 567.66 520.165 568.18 520.748C568.699 521.322 569.096 522.024 569.369 522.854C569.643 523.674 569.779 524.599 569.779 525.629C569.779 526.549 569.643 527.411 569.369 528.213C569.105 529.015 568.704 529.721 568.166 530.332C567.628 530.943 566.949 531.421 566.129 531.768C565.318 532.105 564.356 532.273 563.244 532.273C562.415 532.273 561.617 532.155 560.852 531.918C560.095 531.672 559.416 531.312 558.814 530.838C558.213 530.355 557.73 529.762 557.365 529.061C557.001 528.35 556.791 527.534 556.736 526.613H559.963C560.045 527.26 560.223 527.812 560.496 528.268C560.779 528.714 561.152 529.056 561.617 529.293C562.082 529.53 562.62 529.648 563.23 529.648C563.786 529.648 564.265 529.553 564.666 529.361C565.067 529.161 565.4 528.878 565.664 528.514C565.938 528.14 566.138 527.702 566.266 527.201C566.402 526.7 566.471 526.144 566.471 525.533C566.471 524.95 566.393 524.417 566.238 523.934C566.092 523.451 565.869 523.031 565.568 522.676C565.277 522.32 564.908 522.047 564.461 521.855C564.014 521.655 563.499 521.555 562.916 521.555C562.132 521.555 561.531 521.669 561.111 521.896C560.701 522.124 560.318 522.407 559.963 522.744Z" fill="#1B1B1B"/>
<path d="M141.586 512.025V532H138.291V515.936L133.41 517.59V514.869L141.189 512.025H141.586ZM151.156 529.402H151.43C152.688 529.402 153.736 529.238 154.574 528.91C155.422 528.573 156.096 528.108 156.598 527.516C157.099 526.923 157.459 526.226 157.678 525.424C157.896 524.622 158.006 523.751 158.006 522.812V519.381C158.006 518.57 157.919 517.859 157.746 517.248C157.582 516.628 157.345 516.113 157.035 515.703C156.734 515.284 156.383 514.969 155.982 514.76C155.59 514.55 155.167 514.445 154.711 514.445C154.21 514.445 153.758 514.559 153.357 514.787C152.965 515.006 152.633 515.311 152.359 515.703C152.095 516.086 151.89 516.537 151.744 517.057C151.607 517.567 151.539 518.114 151.539 518.697C151.539 519.244 151.603 519.773 151.73 520.283C151.867 520.785 152.068 521.231 152.332 521.623C152.596 522.015 152.929 522.325 153.33 522.553C153.731 522.781 154.201 522.895 154.738 522.895C155.249 522.895 155.718 522.799 156.146 522.607C156.575 522.407 156.949 522.138 157.268 521.801C157.587 521.464 157.837 521.085 158.02 520.666C158.202 520.247 158.302 519.818 158.32 519.381L159.578 519.764C159.578 520.456 159.432 521.14 159.141 521.814C158.858 522.48 158.462 523.09 157.951 523.646C157.45 524.193 156.862 524.631 156.188 524.959C155.522 525.287 154.798 525.451 154.014 525.451C153.066 525.451 152.227 525.273 151.498 524.918C150.778 524.553 150.176 524.061 149.693 523.441C149.219 522.822 148.864 522.111 148.627 521.309C148.39 520.507 148.271 519.663 148.271 518.779C148.271 517.822 148.417 516.924 148.709 516.086C149.001 515.247 149.424 514.509 149.98 513.871C150.536 513.224 151.211 512.723 152.004 512.367C152.806 512.003 153.713 511.82 154.725 511.82C155.8 511.82 156.743 512.03 157.555 512.449C158.366 512.868 159.049 513.447 159.605 514.186C160.161 514.924 160.581 515.781 160.863 516.756C161.146 517.731 161.287 518.779 161.287 519.9V521.062C161.287 522.238 161.182 523.373 160.973 524.467C160.763 525.551 160.421 526.559 159.947 527.488C159.482 528.409 158.867 529.22 158.102 529.922C157.345 530.615 156.415 531.157 155.312 531.549C154.219 531.932 152.934 532.123 151.457 532.123H151.156V529.402Z" fill="#1B1B1B"/>
<path d="M145.934 609.375V612H132.59V609.744L139.07 602.676C139.781 601.874 140.342 601.181 140.752 600.598C141.162 600.014 141.449 599.49 141.613 599.025C141.786 598.551 141.873 598.091 141.873 597.645C141.873 597.016 141.755 596.464 141.518 595.99C141.29 595.507 140.952 595.129 140.506 594.855C140.059 594.573 139.517 594.432 138.879 594.432C138.141 594.432 137.521 594.591 137.02 594.91C136.518 595.229 136.14 595.671 135.885 596.236C135.63 596.792 135.502 597.43 135.502 598.15H132.207C132.207 596.993 132.471 595.936 133 594.979C133.529 594.012 134.294 593.247 135.297 592.682C136.299 592.107 137.507 591.82 138.92 591.82C140.251 591.82 141.381 592.044 142.311 592.49C143.24 592.937 143.947 593.57 144.43 594.391C144.922 595.211 145.168 596.182 145.168 597.303C145.168 597.923 145.068 598.538 144.867 599.148C144.667 599.759 144.38 600.37 144.006 600.98C143.641 601.582 143.208 602.188 142.707 602.799C142.206 603.4 141.654 604.011 141.053 604.631L136.746 609.375H145.934ZM158.457 591.971H158.867V594.664H158.635C157.459 594.664 156.443 594.846 155.586 595.211C154.738 595.576 154.041 596.077 153.494 596.715C152.947 597.353 152.537 598.1 152.264 598.957C151.999 599.805 151.867 600.707 151.867 601.664V604.795C151.867 605.588 151.954 606.29 152.127 606.9C152.3 607.502 152.542 608.008 152.852 608.418C153.171 608.819 153.535 609.124 153.945 609.334C154.355 609.544 154.798 609.648 155.271 609.648C155.764 609.648 156.21 609.548 156.611 609.348C157.012 609.138 157.354 608.851 157.637 608.486C157.919 608.122 158.133 607.689 158.279 607.188C158.425 606.686 158.498 606.139 158.498 605.547C158.498 604.982 158.425 604.453 158.279 603.961C158.143 603.46 157.938 603.022 157.664 602.648C157.391 602.266 157.049 601.969 156.639 601.76C156.238 601.541 155.773 601.432 155.244 601.432C154.588 601.432 153.991 601.587 153.453 601.896C152.924 602.206 152.496 602.612 152.168 603.113C151.849 603.605 151.676 604.13 151.648 604.686L150.391 604.275C150.464 603.428 150.65 602.667 150.951 601.992C151.261 601.318 151.667 600.743 152.168 600.27C152.669 599.796 153.248 599.436 153.904 599.189C154.57 598.934 155.299 598.807 156.092 598.807C157.058 598.807 157.896 598.989 158.607 599.354C159.318 599.718 159.906 600.215 160.371 600.844C160.845 601.464 161.196 602.174 161.424 602.977C161.661 603.77 161.779 604.599 161.779 605.465C161.779 606.422 161.633 607.315 161.342 608.145C161.05 608.965 160.622 609.685 160.057 610.305C159.501 610.924 158.822 611.408 158.02 611.754C157.227 612.1 156.324 612.273 155.312 612.273C154.246 612.273 153.294 612.068 152.455 611.658C151.626 611.248 150.919 610.683 150.336 609.963C149.762 609.243 149.324 608.413 149.023 607.475C148.723 606.536 148.572 605.542 148.572 604.494V603.127C148.572 601.614 148.764 600.188 149.146 598.848C149.529 597.499 150.117 596.309 150.91 595.279C151.712 594.249 152.738 593.443 153.986 592.859C155.235 592.267 156.725 591.971 158.457 591.971Z" fill="#1B1B1B"/>
<path d="M213.934 609.375V612H200.59V609.744L207.07 602.676C207.781 601.874 208.342 601.181 208.752 600.598C209.162 600.014 209.449 599.49 209.613 599.025C209.786 598.551 209.873 598.091 209.873 597.645C209.873 597.016 209.755 596.464 209.518 595.99C209.29 595.507 208.952 595.129 208.506 594.855C208.059 594.573 207.517 594.432 206.879 594.432C206.141 594.432 205.521 594.591 205.02 594.91C204.518 595.229 204.14 595.671 203.885 596.236C203.63 596.792 203.502 597.43 203.502 598.15H200.207C200.207 596.993 200.471 595.936 201 594.979C201.529 594.012 202.294 593.247 203.297 592.682C204.299 592.107 205.507 591.82 206.92 591.82C208.251 591.82 209.381 592.044 210.311 592.49C211.24 592.937 211.947 593.57 212.43 594.391C212.922 595.211 213.168 596.182 213.168 597.303C213.168 597.923 213.068 598.538 212.867 599.148C212.667 599.759 212.38 600.37 212.006 600.98C211.641 601.582 211.208 602.188 210.707 602.799C210.206 603.4 209.654 604.011 209.053 604.631L204.746 609.375H213.934ZM229.725 592.094V593.898L221.768 612H218.295L226.238 594.719H215.93V592.094H229.725Z" fill="#1B1B1B"/>
<path d="M281.934 609.375V612H268.59V609.744L275.07 602.676C275.781 601.874 276.342 601.181 276.752 600.598C277.162 600.014 277.449 599.49 277.613 599.025C277.786 598.551 277.873 598.091 277.873 597.645C277.873 597.016 277.755 596.464 277.518 595.99C277.29 595.507 276.952 595.129 276.506 594.855C276.059 594.573 275.517 594.432 274.879 594.432C274.141 594.432 273.521 594.591 273.02 594.91C272.518 595.229 272.14 595.671 271.885 596.236C271.63 596.792 271.502 597.43 271.502 598.15H268.207C268.207 596.993 268.471 595.936 269 594.979C269.529 594.012 270.294 593.247 271.297 592.682C272.299 592.107 273.507 591.82 274.92 591.82C276.251 591.82 277.381 592.044 278.311 592.49C279.24 592.937 279.947 593.57 280.43 594.391C280.922 595.211 281.168 596.182 281.168 597.303C281.168 597.923 281.068 598.538 280.867 599.148C280.667 599.759 280.38 600.37 280.006 600.98C279.641 601.582 279.208 602.188 278.707 602.799C278.206 603.4 277.654 604.011 277.053 604.631L272.746 609.375H281.934ZM297.52 606.572C297.52 607.812 297.232 608.855 296.658 609.703C296.084 610.551 295.3 611.193 294.307 611.631C293.322 612.059 292.21 612.273 290.971 612.273C289.731 612.273 288.615 612.059 287.621 611.631C286.628 611.193 285.844 610.551 285.27 609.703C284.695 608.855 284.408 607.812 284.408 606.572C284.408 605.752 284.568 605.009 284.887 604.344C285.206 603.669 285.657 603.09 286.24 602.607C286.833 602.115 287.525 601.737 288.318 601.473C289.12 601.208 289.995 601.076 290.943 601.076C292.201 601.076 293.327 601.309 294.32 601.773C295.314 602.238 296.093 602.881 296.658 603.701C297.232 604.521 297.52 605.479 297.52 606.572ZM294.211 606.408C294.211 605.743 294.074 605.16 293.801 604.658C293.527 604.157 293.145 603.77 292.652 603.496C292.16 603.223 291.59 603.086 290.943 603.086C290.287 603.086 289.717 603.223 289.234 603.496C288.751 603.77 288.373 604.157 288.1 604.658C287.835 605.16 287.703 605.743 287.703 606.408C287.703 607.083 287.835 607.666 288.1 608.158C288.364 608.641 288.742 609.01 289.234 609.266C289.727 609.521 290.305 609.648 290.971 609.648C291.636 609.648 292.21 609.521 292.693 609.266C293.176 609.01 293.55 608.641 293.814 608.158C294.079 607.666 294.211 607.083 294.211 606.408ZM297.068 597.33C297.068 598.324 296.804 599.208 296.275 599.982C295.756 600.757 295.036 601.368 294.115 601.814C293.195 602.252 292.146 602.471 290.971 602.471C289.786 602.471 288.729 602.252 287.799 601.814C286.878 601.368 286.154 600.757 285.625 599.982C285.105 599.208 284.846 598.324 284.846 597.33C284.846 596.145 285.105 595.147 285.625 594.336C286.154 593.516 286.878 592.891 287.799 592.463C288.719 592.035 289.772 591.82 290.957 591.82C292.142 591.82 293.195 592.035 294.115 592.463C295.036 592.891 295.756 593.516 296.275 594.336C296.804 595.147 297.068 596.145 297.068 597.33ZM293.773 597.439C293.773 596.847 293.655 596.327 293.418 595.881C293.19 595.425 292.867 595.07 292.447 594.814C292.028 594.559 291.531 594.432 290.957 594.432C290.383 594.432 289.886 594.555 289.467 594.801C289.048 595.047 288.724 595.393 288.496 595.84C288.268 596.286 288.154 596.82 288.154 597.439C288.154 598.05 288.268 598.583 288.496 599.039C288.724 599.486 289.048 599.837 289.467 600.092C289.895 600.347 290.396 600.475 290.971 600.475C291.545 600.475 292.042 600.347 292.461 600.092C292.88 599.837 293.204 599.486 293.432 599.039C293.66 598.583 293.773 598.05 293.773 597.439Z" fill="#1B1B1B"/>
<path d="M349.934 609.375V612H336.59V609.744L343.07 602.676C343.781 601.874 344.342 601.181 344.752 600.598C345.162 600.014 345.449 599.49 345.613 599.025C345.786 598.551 345.873 598.091 345.873 597.645C345.873 597.016 345.755 596.464 345.518 595.99C345.29 595.507 344.952 595.129 344.506 594.855C344.059 594.573 343.517 594.432 342.879 594.432C342.141 594.432 341.521 594.591 341.02 594.91C340.518 595.229 340.14 595.671 339.885 596.236C339.63 596.792 339.502 597.43 339.502 598.15H336.207C336.207 596.993 336.471 595.936 337 594.979C337.529 594.012 338.294 593.247 339.297 592.682C340.299 592.107 341.507 591.82 342.92 591.82C344.251 591.82 345.381 592.044 346.311 592.49C347.24 592.937 347.947 593.57 348.43 594.391C348.922 595.211 349.168 596.182 349.168 597.303C349.168 597.923 349.068 598.538 348.867 599.148C348.667 599.759 348.38 600.37 348.006 600.98C347.641 601.582 347.208 602.188 346.707 602.799C346.206 603.4 345.654 604.011 345.053 604.631L340.746 609.375H349.934ZM355.156 609.402H355.43C356.688 609.402 357.736 609.238 358.574 608.91C359.422 608.573 360.096 608.108 360.598 607.516C361.099 606.923 361.459 606.226 361.678 605.424C361.896 604.622 362.006 603.751 362.006 602.812V599.381C362.006 598.57 361.919 597.859 361.746 597.248C361.582 596.628 361.345 596.113 361.035 595.703C360.734 595.284 360.383 594.969 359.982 594.76C359.59 594.55 359.167 594.445 358.711 594.445C358.21 594.445 357.758 594.559 357.357 594.787C356.965 595.006 356.633 595.311 356.359 595.703C356.095 596.086 355.89 596.537 355.744 597.057C355.607 597.567 355.539 598.114 355.539 598.697C355.539 599.244 355.603 599.773 355.73 600.283C355.867 600.785 356.068 601.231 356.332 601.623C356.596 602.015 356.929 602.325 357.33 602.553C357.731 602.781 358.201 602.895 358.738 602.895C359.249 602.895 359.718 602.799 360.146 602.607C360.575 602.407 360.949 602.138 361.268 601.801C361.587 601.464 361.837 601.085 362.02 600.666C362.202 600.247 362.302 599.818 362.32 599.381L363.578 599.764C363.578 600.456 363.432 601.14 363.141 601.814C362.858 602.48 362.462 603.09 361.951 603.646C361.45 604.193 360.862 604.631 360.188 604.959C359.522 605.287 358.798 605.451 358.014 605.451C357.066 605.451 356.227 605.273 355.498 604.918C354.778 604.553 354.176 604.061 353.693 603.441C353.219 602.822 352.864 602.111 352.627 601.309C352.39 600.507 352.271 599.663 352.271 598.779C352.271 597.822 352.417 596.924 352.709 596.086C353.001 595.247 353.424 594.509 353.98 593.871C354.536 593.224 355.211 592.723 356.004 592.367C356.806 592.003 357.713 591.82 358.725 591.82C359.8 591.82 360.743 592.03 361.555 592.449C362.366 592.868 363.049 593.447 363.605 594.186C364.161 594.924 364.581 595.781 364.863 596.756C365.146 597.731 365.287 598.779 365.287 599.9V601.062C365.287 602.238 365.182 603.373 364.973 604.467C364.763 605.551 364.421 606.559 363.947 607.488C363.482 608.409 362.867 609.22 362.102 609.922C361.345 610.615 360.415 611.157 359.312 611.549C358.219 611.932 356.934 612.123 355.457 612.123H355.156V609.402Z" fill="#1B1B1B"/>
<path d="M408.459 600.557H410.428C411.193 600.557 411.827 600.424 412.328 600.16C412.839 599.896 413.217 599.531 413.463 599.066C413.709 598.602 413.832 598.068 413.832 597.467C413.832 596.838 413.718 596.3 413.49 595.854C413.271 595.398 412.934 595.047 412.479 594.801C412.032 594.555 411.462 594.432 410.77 594.432C410.186 594.432 409.658 594.55 409.184 594.787C408.719 595.015 408.35 595.343 408.076 595.771C407.803 596.191 407.666 596.692 407.666 597.275H404.357C404.357 596.218 404.635 595.279 405.191 594.459C405.747 593.639 406.504 592.996 407.461 592.531C408.427 592.057 409.512 591.82 410.715 591.82C412 591.82 413.121 592.035 414.078 592.463C415.044 592.882 415.796 593.511 416.334 594.35C416.872 595.188 417.141 596.227 417.141 597.467C417.141 598.032 417.008 598.606 416.744 599.189C416.48 599.773 416.088 600.306 415.568 600.789C415.049 601.263 414.402 601.65 413.627 601.951C412.852 602.243 411.954 602.389 410.934 602.389H408.459V600.557ZM408.459 603.127V601.322H410.934C412.1 601.322 413.094 601.459 413.914 601.732C414.743 602.006 415.418 602.384 415.938 602.867C416.457 603.341 416.835 603.883 417.072 604.494C417.318 605.105 417.441 605.752 417.441 606.436C417.441 607.365 417.273 608.195 416.936 608.924C416.607 609.644 416.138 610.255 415.527 610.756C414.917 611.257 414.201 611.635 413.381 611.891C412.57 612.146 411.686 612.273 410.729 612.273C409.872 612.273 409.051 612.155 408.268 611.918C407.484 611.681 406.782 611.33 406.162 610.865C405.542 610.391 405.05 609.803 404.686 609.102C404.33 608.391 404.152 607.57 404.152 606.641H407.447C407.447 607.233 407.584 607.757 407.857 608.213C408.14 608.66 408.532 609.01 409.033 609.266C409.544 609.521 410.127 609.648 410.783 609.648C411.476 609.648 412.073 609.525 412.574 609.279C413.076 609.033 413.458 608.669 413.723 608.186C413.996 607.702 414.133 607.119 414.133 606.436C414.133 605.661 413.982 605.032 413.682 604.549C413.381 604.066 412.952 603.71 412.396 603.482C411.84 603.245 411.184 603.127 410.428 603.127H408.459ZM433.479 600.379V603.633C433.479 605.191 433.324 606.522 433.014 607.625C432.713 608.719 432.275 609.607 431.701 610.291C431.127 610.975 430.439 611.476 429.637 611.795C428.844 612.114 427.955 612.273 426.971 612.273C426.187 612.273 425.458 612.173 424.783 611.973C424.118 611.772 423.516 611.458 422.979 611.029C422.441 610.601 421.98 610.049 421.598 609.375C421.224 608.691 420.932 607.876 420.723 606.928C420.522 605.98 420.422 604.882 420.422 603.633V600.379C420.422 598.811 420.577 597.49 420.887 596.414C421.197 595.329 421.639 594.45 422.213 593.775C422.787 593.092 423.471 592.595 424.264 592.285C425.066 591.975 425.959 591.82 426.943 591.82C427.736 591.82 428.465 591.921 429.131 592.121C429.805 592.312 430.407 592.618 430.936 593.037C431.473 593.456 431.929 594.003 432.303 594.678C432.686 595.343 432.977 596.15 433.178 597.098C433.378 598.036 433.479 599.13 433.479 600.379ZM430.184 604.098V599.887C430.184 599.094 430.138 598.396 430.047 597.795C429.956 597.184 429.819 596.669 429.637 596.25C429.464 595.822 429.245 595.475 428.98 595.211C428.716 594.938 428.415 594.742 428.078 594.623C427.741 594.495 427.363 594.432 426.943 594.432C426.433 594.432 425.977 594.532 425.576 594.732C425.175 594.924 424.838 595.234 424.564 595.662C424.291 596.09 424.081 596.656 423.936 597.357C423.799 598.05 423.73 598.893 423.73 599.887V604.098C423.73 604.9 423.776 605.606 423.867 606.217C423.958 606.827 424.095 607.352 424.277 607.789C424.46 608.217 424.678 608.573 424.934 608.855C425.198 609.129 425.499 609.329 425.836 609.457C426.182 609.585 426.561 609.648 426.971 609.648C427.49 609.648 427.951 609.548 428.352 609.348C428.753 609.147 429.09 608.828 429.363 608.391C429.637 607.944 429.842 607.365 429.979 606.654C430.115 605.943 430.184 605.091 430.184 604.098Z" fill="#1B1B1B"/>
</g>
<defs>
<filter id="filter0_d_1_161" x="0" y="0" width="712" height="874" filterUnits="userSpaceOnUse" color-interpolation-filters="sRGB">
<feFlood flood-opacity="0" result="BackgroundImageFix"/>
<feColorMatrix in="SourceAlpha" type="matrix" values="0 0 0 0 0 0 0 0 0 0 0 0 0 0 0 0 0 0 127 0" result="hardAlpha"/>
<feOffset dx="5" dy="34"/>
<feGaussianBlur stdDeviation="40"/>
<feComposite in2="hardAlpha" operator="out"/>
<feColorMatrix type="matrix" values="0 0 0 0 0 0 0 0 0 0 0 0 0 0 0 0 0 0 0.15 0"/>
<feBlend mode="normal" in2="BackgroundImageFix" result="effect1_dropShadow_1_161"/>
<feBlend mode="normal" in="SourceGraphic" in2="effect1_dropShadow_1_161" result="shape"/>
</filter>
<filter id="filter1_d_1_161" x="441" y="662" width="149" height="80" filterUnits="userSpaceOnUse" color-interpolation-filters="sRGB">
<feFlood flood-opacity="0" result="BackgroundImageFix"/>
<feColorMatrix in="SourceAlpha" type="matrix" values="0 0 0 0 0 0 0 0 0 0 0 0 0 0 0 0 0 0 127 0" result="hardAlpha"/>
<feOffset dy="10"/>
<feGaussianBlur stdDeviation="6"/>
<feComposite in2="hardAlpha" operator="out"/>
<feColorMatrix type="matrix" values="0 0 0 0 0 0 0 0 0 0 0 0 0 0 0 0 0 0 0.05 0"/>
<feBlend mode="normal" in2="BackgroundImageFix" result="effect1_dropShadow_1_161"/>
<feBlend mode="normal" in="SourceGraphic" in2="effect1_dropShadow_1_161" result="shape"/>
</filter>
<filter id="filter2_d_1_161" x="506" y="55" width="98" height="98" filterUnits="userSpaceOnUse" color-interpolation-filters="sRGB">
<feFlood flood-opacity="0" result="BackgroundImageFix"/>
<feColorMatrix in="SourceAlpha" type="matrix" values="0 0 0 0 0 0 0 0 0 0 0 0 0 0 0 0 0 0 127 0" result="hardAlpha"/>
<feOffset dy="4"/>
<feGaussianBlur stdDeviation="10"/>
<feComposite in2="hardAlpha" operator="out"/>
<feColorMatrix type="matrix" values="0 0 0 0 0 0 0 0 0 0 0 0 0 0 0 0 0 0 0.1 0"/>
<feBlend mode="normal" in2="BackgroundImageFix" result="effect1_dropShadow_1_161"/>
<feBlend mode="normal" in="SourceGraphic" in2="effect1_dropShadow_1_161" result="shape"/>
</filter>
<filter id="filter3_d_1_161" x="98" y="55" width="98" height="98" filterUnits="userSpaceOnUse" color-interpolation-filters="sRGB">
<feFlood flood-opacity="0" result="BackgroundImageFix"/>
<feColorMatrix in="SourceAlpha" type="matrix" values="0 0 0 0 0 0 0 0 0 0 0 0 0 0 0 0 0 0 127 0" result="hardAlpha"/>
<feOffset dy="4"/>
<feGaussianBlur stdDeviation="10"/>
<feComposite in2="hardAlpha" operator="out"/>
<feColorMatrix type="matrix" values="0 0 0 0 0 0 0 0 0 0 0 0 0 0 0 0 0 0 0.1 0"/>
<feBlend mode="normal" in2="BackgroundImageFix" result="effect1_dropShadow_1_161"/>
<feBlend mode="normal" in="SourceGraphic" in2="effect1_dropShadow_1_161" result="shape"/>
</filter>
</defs>
</svg>
