<svg fill="none" height="49" viewBox="0 0 48 49" width="48" xmlns="http://www.w3.org/2000/svg"><path d="m3 24.5c0 11.598 9.402 21 21 21s21-9.402 21-21-9.402-21-21-21-21 9.402-21 21z" fill="#a6cfff"/><g fill="#1575e5"><path d="m17 20c0 1.3807-1.1193 2.5-2.5 2.5s-2.5-1.1193-2.5-2.5 1.1193-2.5 2.5-2.5 2.5 1.1193 2.5 2.5z"/><path d="m19 29c.8284 0 1.5.6716 1.5 1.5 0 1.933 1.567 3.5 3.5 3.5s3.5-1.567 3.5-3.5c0-.8284.6716-1.5 1.5-1.5s1.5.6716 1.5 1.5c0 3.5899-2.9101 6.5-6.5 6.5s-6.5-2.9101-6.5-6.5c0-.8284.6716-1.5 1.5-1.5z"/><path d="m33.5 22.5c1.3807 0 2.5-1.1193 2.5-2.5s-1.1193-2.5-2.5-2.5-2.5 1.1193-2.5 2.5 1.1193 2.5 2.5 2.5z"/></g></svg>